%TF.GenerationSoftware,KiCad,Pcbnew,9.0.6*%
%TF.CreationDate,2025-11-23T12:16:46-08:00*%
%TF.ProjectId,CurrentTransformer,43757272-656e-4745-9472-616e73666f72,rev?*%
%TF.SameCoordinates,Original*%
%TF.FileFunction,Copper,L2,Bot*%
%TF.FilePolarity,Positive*%
%FSLAX46Y46*%
G04 Gerber Fmt 4.6, Leading zero omitted, Abs format (unit mm)*
G04 Created by KiCad (PCBNEW 9.0.6) date 2025-11-23 12:16:46*
%MOMM*%
%LPD*%
G01*
G04 APERTURE LIST*
%TA.AperFunction,ComponentPad*%
%ADD10C,1.879600*%
%TD*%
%TA.AperFunction,ComponentPad*%
%ADD11R,1.800000X1.800000*%
%TD*%
%TA.AperFunction,ComponentPad*%
%ADD12C,1.800000*%
%TD*%
%TA.AperFunction,ComponentPad*%
%ADD13C,1.600000*%
%TD*%
%TA.AperFunction,ViaPad*%
%ADD14C,0.600000*%
%TD*%
%TA.AperFunction,Conductor*%
%ADD15C,0.200000*%
%TD*%
G04 APERTURE END LIST*
D10*
%TO.P,U1,J1_1,GND*%
%TO.N,GND*%
X155750000Y-119030000D03*
%TO.P,U1,J1_2,VUSB*%
%TO.N,VUSB*%
X155750000Y-116490000D03*
%TO.P,U1,J1_3,VBAT*%
%TO.N,VBAT*%
X155750000Y-113950000D03*
%TO.P,U1,J1_4,GND*%
%TO.N,GND*%
X155750000Y-111410000D03*
%TO.P,U1,J1_5,3.3V/3V3*%
%TO.N,+3.3V*%
X155750000Y-108870000D03*
%TO.P,U1,J1_6,RESET/~{RST}*%
%TO.N,unconnected-(U1-RESET{slash}~{RST}-PadJ1_6)*%
X155750000Y-106330000D03*
%TO.P,U1,J1_7,TOUCH4/HSPI_ID/ADC2_4/GPIO13/13*%
%TO.N,unconnected-(U1-TOUCH4{slash}HSPI_ID{slash}ADC2_4{slash}GPIO13{slash}13-PadJ1_7)*%
X155750000Y-103790000D03*
%TO.P,U1,J1_8,TOUCH5/HSPI_Q/ADC2_5/GPIO12/12*%
%TO.N,unconnected-(U1-TOUCH5{slash}HSPI_Q{slash}ADC2_5{slash}GPIO12{slash}12-PadJ1_8)*%
X155750000Y-101250000D03*
%TO.P,U1,J1_9,TOUCH6/HSPI_CLK/ADC2_6/GPIO14/14*%
%TO.N,unconnected-(U1-TOUCH6{slash}HSPI_CLK{slash}ADC2_6{slash}GPIO14{slash}14-PadJ1_9)*%
X155750000Y-98710000D03*
%TO.P,U1,J1_10,TOUCH7/ADC2_7/GPIO27/27*%
%TO.N,unconnected-(U1-TOUCH7{slash}ADC2_7{slash}GPIO27{slash}27-PadJ1_10)*%
X155750000Y-96170000D03*
%TO.P,U1,J1_11,DAC2/ADC2_9/GPIO26/26*%
%TO.N,unconnected-(U1-DAC2{slash}ADC2_9{slash}GPIO26{slash}26-PadJ1_11)*%
X155750000Y-93630000D03*
%TO.P,U1,J1_12,DAC1/ADC2_8/GPIO25/25*%
%TO.N,unconnected-(U1-DAC1{slash}ADC2_8{slash}GPIO25{slash}25-PadJ1_12)*%
X155750000Y-91090000D03*
%TO.P,U1,J1_13,VDET2/ADC1_7/GPIO35/35*%
%TO.N,/V_Shunt3*%
X155750000Y-88550000D03*
%TO.P,U1,J1_14,VDET1/ADC1_6/GPIO34/34*%
%TO.N,/V_Shunt2*%
X155750000Y-86010000D03*
%TO.P,U1,J1_15,TOUCH8/ADC1_5/GPIO33/XTAL32/33*%
%TO.N,/V_Shunt1*%
X155750000Y-83470000D03*
%TO.P,U1,J1_16,TOUCH9/ADC1_4/GPIO32/XTAL32/32*%
%TO.N,/Bias*%
X155750000Y-80930000D03*
%TO.P,U1,J1_17,ADC1_3/GPIO39/SENSEVN/39*%
%TO.N,unconnected-(U1-ADC1_3{slash}GPIO39{slash}SENSEVN{slash}39-PadJ1_17)*%
X155750000Y-78390000D03*
%TO.P,U1,J1_18,ADC1_2/GPIO38/CAPVN/38*%
%TO.N,unconnected-(U1-ADC1_2{slash}GPIO38{slash}CAPVN{slash}38-PadJ1_18)*%
X155750000Y-75850000D03*
%TO.P,U1,J1_19,ADC1_1/GPIO37/CAPVP/37*%
%TO.N,unconnected-(U1-ADC1_1{slash}GPIO37{slash}CAPVP{slash}37-PadJ1_19)*%
X155750000Y-73310000D03*
%TO.P,U1,J1_20,ADC1_0/GPIO36/SENSEVP/36*%
%TO.N,unconnected-(U1-ADC1_0{slash}GPIO36{slash}SENSEVP{slash}36-PadJ1_20)*%
X155750000Y-70770000D03*
%TO.P,U1,J2_1,GND*%
%TO.N,GND*%
X178610000Y-119030000D03*
%TO.P,U1,J2_2,VUSB*%
%TO.N,VUSB*%
X178610000Y-116490000D03*
%TO.P,U1,J2_3,VBAT*%
%TO.N,VBAT*%
X178610000Y-113950000D03*
%TO.P,U1,J2_4,GND*%
%TO.N,GND*%
X178610000Y-111410000D03*
%TO.P,U1,J2_5,3.3V/3V3*%
%TO.N,+3.3V*%
X178610000Y-108870000D03*
%TO.P,U1,J2_6,U2_RXD/GPIO16/16*%
%TO.N,unconnected-(U1-U2_RXD{slash}GPIO16{slash}16-PadJ2_6)*%
X178610000Y-106330000D03*
%TO.P,U1,J2_7,U2_TXD/GPIO17/17*%
%TO.N,unconnected-(U1-U2_TXD{slash}GPIO17{slash}17-PadJ2_7)*%
X178610000Y-103790000D03*
%TO.P,U1,J2_8,TOUCH0/HSPI_HD/ADC2_0/GPIO4/4*%
%TO.N,unconnected-(U1-TOUCH0{slash}HSPI_HD{slash}ADC2_0{slash}GPIO4{slash}4-PadJ2_8)*%
X178610000Y-101250000D03*
%TO.P,U1,J2_9,BUTTON/TOUCH1/ADC2_1/GPIO0/CLK1/0*%
%TO.N,unconnected-(U1-BUTTON{slash}TOUCH1{slash}ADC2_1{slash}GPIO0{slash}CLK1{slash}0-PadJ2_9)*%
X178610000Y-98710000D03*
%TO.P,U1,J2_10,TOUCH2/HSPI_WP/ADC2_2/GPIO2/CS/2*%
%TO.N,unconnected-(U1-TOUCH2{slash}HSPI_WP{slash}ADC2_2{slash}GPIO2{slash}CS{slash}2-PadJ2_10)*%
X178610000Y-96170000D03*
%TO.P,U1,J2_11,TOUCH3/HSPI_CS0/ADC2_3/GPIO15/15*%
%TO.N,unconnected-(U1-TOUCH3{slash}HSPI_CS0{slash}ADC2_3{slash}GPIO15{slash}15-PadJ2_11)*%
X178610000Y-93630000D03*
%TO.P,U1,J2_12,V_SPI_CS0/LED(BLUE)/GPIO5/5*%
%TO.N,unconnected-(U1-V_SPI_CS0{slash}LED(BLUE){slash}GPIO5{slash}5-PadJ2_12)*%
X178610000Y-91090000D03*
%TO.P,U1,J2_13,V_SPI_CLK/GPIO18/SCK/18*%
%TO.N,unconnected-(U1-V_SPI_CLK{slash}GPIO18{slash}SCK{slash}18-PadJ2_13)*%
X178610000Y-88550000D03*
%TO.P,U1,J2_14,V_SPI_D/GPIO23/MOSI/23*%
%TO.N,unconnected-(U1-V_SPI_D{slash}GPIO23{slash}MOSI{slash}23-PadJ2_14)*%
X178610000Y-86010000D03*
%TO.P,U1,J2_15,U0_CTS/V_SPI_Q/GPIO19/MISO/19*%
%TO.N,unconnected-(U1-U0_CTS{slash}V_SPI_Q{slash}GPIO19{slash}MISO{slash}19-PadJ2_15)*%
X178610000Y-83470000D03*
%TO.P,U1,J2_16,U0_RTS/V_SPI_WP/GPIO22/SCL/22*%
%TO.N,unconnected-(U1-U0_RTS{slash}V_SPI_WP{slash}GPIO22{slash}SCL{slash}22-PadJ2_16)*%
X178610000Y-80930000D03*
%TO.P,U1,J2_17,U0_RXD/GPIO3/CLK2/RX*%
%TO.N,unconnected-(U1-U0_RXD{slash}GPIO3{slash}CLK2{slash}RX-PadJ2_17)*%
X178610000Y-78390000D03*
%TO.P,U1,J2_18,U0_TXD/GPIO1/CLK3/TX*%
%TO.N,unconnected-(U1-U0_TXD{slash}GPIO1{slash}CLK3{slash}TX-PadJ2_18)*%
X178610000Y-75850000D03*
%TO.P,U1,J2_19,V_SPI_HD/GPIO21/SDA/21*%
%TO.N,unconnected-(U1-V_SPI_HD{slash}GPIO21{slash}SDA{slash}21-PadJ2_19)*%
X178610000Y-73310000D03*
%TO.P,U1,J2_20,GND*%
%TO.N,GND*%
X178610000Y-70770000D03*
%TD*%
D11*
%TO.P,J3,1,Pin_1*%
%TO.N,Net-(J3-Pin_1)*%
X203500000Y-66500000D03*
D12*
%TO.P,J3,2,Pin_2*%
%TO.N,/V_Shunt3*%
X207000000Y-66500000D03*
%TD*%
D11*
%TO.P,J2,1,Pin_1*%
%TO.N,Net-(J2-Pin_1)*%
X183750000Y-66500000D03*
D12*
%TO.P,J2,2,Pin_2*%
%TO.N,/V_Shunt1*%
X187250000Y-66500000D03*
%TD*%
D13*
%TO.P,R4,1*%
%TO.N,/V_Shunt1*%
X185000000Y-83830000D03*
%TO.P,R4,2*%
%TO.N,Net-(J2-Pin_1)*%
X185000000Y-73670000D03*
%TD*%
%TO.P,R5,1*%
%TO.N,/V_Shunt3*%
X205500000Y-83580000D03*
%TO.P,R5,2*%
%TO.N,Net-(J3-Pin_1)*%
X205500000Y-73420000D03*
%TD*%
D11*
%TO.P,J1,1,Pin_1*%
%TO.N,Net-(J1-Pin_1)*%
X193500000Y-66500000D03*
D12*
%TO.P,J1,2,Pin_2*%
%TO.N,/V_Shunt2*%
X197000000Y-66500000D03*
%TD*%
D13*
%TO.P,R3,1*%
%TO.N,/V_Shunt2*%
X195250000Y-83580000D03*
%TO.P,R3,2*%
%TO.N,Net-(J1-Pin_1)*%
X195250000Y-73420000D03*
%TD*%
D14*
%TO.N,/V_Shunt2*%
X192009764Y-90759764D03*
X195000000Y-88750000D03*
X194488235Y-90761765D03*
%TO.N,/V_Shunt3*%
X197000000Y-88250000D03*
%TO.N,/Bias*%
X188075000Y-95250000D03*
%TD*%
D15*
%TO.N,/V_Shunt2*%
X160918277Y-89849200D02*
X157079077Y-86010000D01*
X157079077Y-86010000D02*
X155750000Y-86010000D01*
X192009764Y-90759764D02*
X191099200Y-89849200D01*
X191099200Y-89849200D02*
X160918277Y-89849200D01*
X195000000Y-90250000D02*
X194488235Y-90761765D01*
X195000000Y-88750000D02*
X195000000Y-90250000D01*
%TO.N,/V_Shunt3*%
X159589200Y-92389200D02*
X155750000Y-88550000D01*
X195500000Y-89250000D02*
X195500000Y-90701698D01*
X193951698Y-92250000D02*
X179500000Y-92250000D01*
X179360800Y-92389200D02*
X159589200Y-92389200D01*
X179500000Y-92250000D02*
X179360800Y-92389200D01*
X195500000Y-90701698D02*
X193951698Y-92250000D01*
X196500000Y-88250000D02*
X195500000Y-89250000D01*
X197000000Y-88250000D02*
X196500000Y-88250000D01*
%TO.N,/Bias*%
X155294443Y-94929200D02*
X154500000Y-94134757D01*
X186679200Y-94929200D02*
X155294443Y-94929200D01*
X188075000Y-95250000D02*
X187000000Y-95250000D01*
X154500000Y-94134757D02*
X154500000Y-82180000D01*
X187000000Y-95250000D02*
X186679200Y-94929200D01*
X154500000Y-82180000D02*
X155750000Y-80930000D01*
%TD*%
M02*
