%TF.GenerationSoftware,KiCad,Pcbnew,9.0.6*%
%TF.CreationDate,2025-11-23T12:16:46-08:00*%
%TF.ProjectId,CurrentTransformer,43757272-656e-4745-9472-616e73666f72,rev?*%
%TF.SameCoordinates,Original*%
%TF.FileFunction,Legend,Top*%
%TF.FilePolarity,Positive*%
%FSLAX46Y46*%
G04 Gerber Fmt 4.6, Leading zero omitted, Abs format (unit mm)*
G04 Created by KiCad (PCBNEW 9.0.6) date 2025-11-23 12:16:46*
%MOMM*%
%LPD*%
G01*
G04 APERTURE LIST*
%ADD10C,0.300000*%
%ADD11C,0.150000*%
%ADD12C,0.127000*%
%ADD13C,0.120000*%
%ADD14C,0.152400*%
%ADD15C,0.000000*%
G04 APERTURE END LIST*
D10*
X159304510Y-71550828D02*
X159304510Y-70050828D01*
X159304510Y-70050828D02*
X159661653Y-70050828D01*
X159661653Y-70050828D02*
X159875939Y-70122257D01*
X159875939Y-70122257D02*
X160018796Y-70265114D01*
X160018796Y-70265114D02*
X160090225Y-70407971D01*
X160090225Y-70407971D02*
X160161653Y-70693685D01*
X160161653Y-70693685D02*
X160161653Y-70907971D01*
X160161653Y-70907971D02*
X160090225Y-71193685D01*
X160090225Y-71193685D02*
X160018796Y-71336542D01*
X160018796Y-71336542D02*
X159875939Y-71479400D01*
X159875939Y-71479400D02*
X159661653Y-71550828D01*
X159661653Y-71550828D02*
X159304510Y-71550828D01*
X161018796Y-71550828D02*
X160875939Y-71479400D01*
X160875939Y-71479400D02*
X160804510Y-71407971D01*
X160804510Y-71407971D02*
X160733082Y-71265114D01*
X160733082Y-71265114D02*
X160733082Y-70836542D01*
X160733082Y-70836542D02*
X160804510Y-70693685D01*
X160804510Y-70693685D02*
X160875939Y-70622257D01*
X160875939Y-70622257D02*
X161018796Y-70550828D01*
X161018796Y-70550828D02*
X161233082Y-70550828D01*
X161233082Y-70550828D02*
X161375939Y-70622257D01*
X161375939Y-70622257D02*
X161447368Y-70693685D01*
X161447368Y-70693685D02*
X161518796Y-70836542D01*
X161518796Y-70836542D02*
X161518796Y-71265114D01*
X161518796Y-71265114D02*
X161447368Y-71407971D01*
X161447368Y-71407971D02*
X161375939Y-71479400D01*
X161375939Y-71479400D02*
X161233082Y-71550828D01*
X161233082Y-71550828D02*
X161018796Y-71550828D01*
X161947368Y-70550828D02*
X162518796Y-70550828D01*
X162161653Y-70050828D02*
X162161653Y-71336542D01*
X162161653Y-71336542D02*
X162233082Y-71479400D01*
X162233082Y-71479400D02*
X162375939Y-71550828D01*
X162375939Y-71550828D02*
X162518796Y-71550828D01*
X192911653Y-108157971D02*
X192840225Y-108229400D01*
X192840225Y-108229400D02*
X192625939Y-108300828D01*
X192625939Y-108300828D02*
X192483082Y-108300828D01*
X192483082Y-108300828D02*
X192268796Y-108229400D01*
X192268796Y-108229400D02*
X192125939Y-108086542D01*
X192125939Y-108086542D02*
X192054510Y-107943685D01*
X192054510Y-107943685D02*
X191983082Y-107657971D01*
X191983082Y-107657971D02*
X191983082Y-107443685D01*
X191983082Y-107443685D02*
X192054510Y-107157971D01*
X192054510Y-107157971D02*
X192125939Y-107015114D01*
X192125939Y-107015114D02*
X192268796Y-106872257D01*
X192268796Y-106872257D02*
X192483082Y-106800828D01*
X192483082Y-106800828D02*
X192625939Y-106800828D01*
X192625939Y-106800828D02*
X192840225Y-106872257D01*
X192840225Y-106872257D02*
X192911653Y-106943685D01*
X193340225Y-106800828D02*
X194197368Y-106800828D01*
X193768796Y-108300828D02*
X193768796Y-106800828D01*
X195840224Y-108300828D02*
X195840224Y-106800828D01*
X195840224Y-106800828D02*
X196411653Y-106800828D01*
X196411653Y-106800828D02*
X196554510Y-106872257D01*
X196554510Y-106872257D02*
X196625939Y-106943685D01*
X196625939Y-106943685D02*
X196697367Y-107086542D01*
X196697367Y-107086542D02*
X196697367Y-107300828D01*
X196697367Y-107300828D02*
X196625939Y-107443685D01*
X196625939Y-107443685D02*
X196554510Y-107515114D01*
X196554510Y-107515114D02*
X196411653Y-107586542D01*
X196411653Y-107586542D02*
X195840224Y-107586542D01*
X198197367Y-108157971D02*
X198125939Y-108229400D01*
X198125939Y-108229400D02*
X197911653Y-108300828D01*
X197911653Y-108300828D02*
X197768796Y-108300828D01*
X197768796Y-108300828D02*
X197554510Y-108229400D01*
X197554510Y-108229400D02*
X197411653Y-108086542D01*
X197411653Y-108086542D02*
X197340224Y-107943685D01*
X197340224Y-107943685D02*
X197268796Y-107657971D01*
X197268796Y-107657971D02*
X197268796Y-107443685D01*
X197268796Y-107443685D02*
X197340224Y-107157971D01*
X197340224Y-107157971D02*
X197411653Y-107015114D01*
X197411653Y-107015114D02*
X197554510Y-106872257D01*
X197554510Y-106872257D02*
X197768796Y-106800828D01*
X197768796Y-106800828D02*
X197911653Y-106800828D01*
X197911653Y-106800828D02*
X198125939Y-106872257D01*
X198125939Y-106872257D02*
X198197367Y-106943685D01*
X199340224Y-107515114D02*
X199554510Y-107586542D01*
X199554510Y-107586542D02*
X199625939Y-107657971D01*
X199625939Y-107657971D02*
X199697367Y-107800828D01*
X199697367Y-107800828D02*
X199697367Y-108015114D01*
X199697367Y-108015114D02*
X199625939Y-108157971D01*
X199625939Y-108157971D02*
X199554510Y-108229400D01*
X199554510Y-108229400D02*
X199411653Y-108300828D01*
X199411653Y-108300828D02*
X198840224Y-108300828D01*
X198840224Y-108300828D02*
X198840224Y-106800828D01*
X198840224Y-106800828D02*
X199340224Y-106800828D01*
X199340224Y-106800828D02*
X199483082Y-106872257D01*
X199483082Y-106872257D02*
X199554510Y-106943685D01*
X199554510Y-106943685D02*
X199625939Y-107086542D01*
X199625939Y-107086542D02*
X199625939Y-107229400D01*
X199625939Y-107229400D02*
X199554510Y-107372257D01*
X199554510Y-107372257D02*
X199483082Y-107443685D01*
X199483082Y-107443685D02*
X199340224Y-107515114D01*
X199340224Y-107515114D02*
X198840224Y-107515114D01*
D11*
X166488095Y-90704819D02*
X166488095Y-91514342D01*
X166488095Y-91514342D02*
X166535714Y-91609580D01*
X166535714Y-91609580D02*
X166583333Y-91657200D01*
X166583333Y-91657200D02*
X166678571Y-91704819D01*
X166678571Y-91704819D02*
X166869047Y-91704819D01*
X166869047Y-91704819D02*
X166964285Y-91657200D01*
X166964285Y-91657200D02*
X167011904Y-91609580D01*
X167011904Y-91609580D02*
X167059523Y-91514342D01*
X167059523Y-91514342D02*
X167059523Y-90704819D01*
X168059523Y-91704819D02*
X167488095Y-91704819D01*
X167773809Y-91704819D02*
X167773809Y-90704819D01*
X167773809Y-90704819D02*
X167678571Y-90847676D01*
X167678571Y-90847676D02*
X167583333Y-90942914D01*
X167583333Y-90942914D02*
X167488095Y-90990533D01*
X205166470Y-71204502D02*
X205166470Y-71919210D01*
X205166470Y-71919210D02*
X205118822Y-72062151D01*
X205118822Y-72062151D02*
X205023528Y-72157446D01*
X205023528Y-72157446D02*
X204880586Y-72205093D01*
X204880586Y-72205093D02*
X204785292Y-72205093D01*
X205547647Y-71204502D02*
X206167061Y-71204502D01*
X206167061Y-71204502D02*
X205833530Y-71585679D01*
X205833530Y-71585679D02*
X205976472Y-71585679D01*
X205976472Y-71585679D02*
X206071766Y-71633326D01*
X206071766Y-71633326D02*
X206119413Y-71680974D01*
X206119413Y-71680974D02*
X206167061Y-71776268D01*
X206167061Y-71776268D02*
X206167061Y-72014504D01*
X206167061Y-72014504D02*
X206119413Y-72109798D01*
X206119413Y-72109798D02*
X206071766Y-72157446D01*
X206071766Y-72157446D02*
X205976472Y-72205093D01*
X205976472Y-72205093D02*
X205690589Y-72205093D01*
X205690589Y-72205093D02*
X205595294Y-72157446D01*
X205595294Y-72157446D02*
X205547647Y-72109798D01*
X197833333Y-96954819D02*
X197500000Y-96478628D01*
X197261905Y-96954819D02*
X197261905Y-95954819D01*
X197261905Y-95954819D02*
X197642857Y-95954819D01*
X197642857Y-95954819D02*
X197738095Y-96002438D01*
X197738095Y-96002438D02*
X197785714Y-96050057D01*
X197785714Y-96050057D02*
X197833333Y-96145295D01*
X197833333Y-96145295D02*
X197833333Y-96288152D01*
X197833333Y-96288152D02*
X197785714Y-96383390D01*
X197785714Y-96383390D02*
X197738095Y-96431009D01*
X197738095Y-96431009D02*
X197642857Y-96478628D01*
X197642857Y-96478628D02*
X197261905Y-96478628D01*
X198214286Y-96050057D02*
X198261905Y-96002438D01*
X198261905Y-96002438D02*
X198357143Y-95954819D01*
X198357143Y-95954819D02*
X198595238Y-95954819D01*
X198595238Y-95954819D02*
X198690476Y-96002438D01*
X198690476Y-96002438D02*
X198738095Y-96050057D01*
X198738095Y-96050057D02*
X198785714Y-96145295D01*
X198785714Y-96145295D02*
X198785714Y-96240533D01*
X198785714Y-96240533D02*
X198738095Y-96383390D01*
X198738095Y-96383390D02*
X198166667Y-96954819D01*
X198166667Y-96954819D02*
X198785714Y-96954819D01*
X197333333Y-98204819D02*
X196761905Y-98204819D01*
X197047619Y-98204819D02*
X197047619Y-97204819D01*
X197047619Y-97204819D02*
X196952381Y-97347676D01*
X196952381Y-97347676D02*
X196857143Y-97442914D01*
X196857143Y-97442914D02*
X196761905Y-97490533D01*
X197952381Y-97204819D02*
X198047619Y-97204819D01*
X198047619Y-97204819D02*
X198142857Y-97252438D01*
X198142857Y-97252438D02*
X198190476Y-97300057D01*
X198190476Y-97300057D02*
X198238095Y-97395295D01*
X198238095Y-97395295D02*
X198285714Y-97585771D01*
X198285714Y-97585771D02*
X198285714Y-97823866D01*
X198285714Y-97823866D02*
X198238095Y-98014342D01*
X198238095Y-98014342D02*
X198190476Y-98109580D01*
X198190476Y-98109580D02*
X198142857Y-98157200D01*
X198142857Y-98157200D02*
X198047619Y-98204819D01*
X198047619Y-98204819D02*
X197952381Y-98204819D01*
X197952381Y-98204819D02*
X197857143Y-98157200D01*
X197857143Y-98157200D02*
X197809524Y-98109580D01*
X197809524Y-98109580D02*
X197761905Y-98014342D01*
X197761905Y-98014342D02*
X197714286Y-97823866D01*
X197714286Y-97823866D02*
X197714286Y-97585771D01*
X197714286Y-97585771D02*
X197761905Y-97395295D01*
X197761905Y-97395295D02*
X197809524Y-97300057D01*
X197809524Y-97300057D02*
X197857143Y-97252438D01*
X197857143Y-97252438D02*
X197952381Y-97204819D01*
X198904762Y-97204819D02*
X199000000Y-97204819D01*
X199000000Y-97204819D02*
X199095238Y-97252438D01*
X199095238Y-97252438D02*
X199142857Y-97300057D01*
X199142857Y-97300057D02*
X199190476Y-97395295D01*
X199190476Y-97395295D02*
X199238095Y-97585771D01*
X199238095Y-97585771D02*
X199238095Y-97823866D01*
X199238095Y-97823866D02*
X199190476Y-98014342D01*
X199190476Y-98014342D02*
X199142857Y-98109580D01*
X199142857Y-98109580D02*
X199095238Y-98157200D01*
X199095238Y-98157200D02*
X199000000Y-98204819D01*
X199000000Y-98204819D02*
X198904762Y-98204819D01*
X198904762Y-98204819D02*
X198809524Y-98157200D01*
X198809524Y-98157200D02*
X198761905Y-98109580D01*
X198761905Y-98109580D02*
X198714286Y-98014342D01*
X198714286Y-98014342D02*
X198666667Y-97823866D01*
X198666667Y-97823866D02*
X198666667Y-97585771D01*
X198666667Y-97585771D02*
X198714286Y-97395295D01*
X198714286Y-97395295D02*
X198761905Y-97300057D01*
X198761905Y-97300057D02*
X198809524Y-97252438D01*
X198809524Y-97252438D02*
X198904762Y-97204819D01*
X199666667Y-98204819D02*
X199666667Y-97204819D01*
X200238095Y-98204819D02*
X199809524Y-97633390D01*
X200238095Y-97204819D02*
X199666667Y-97776247D01*
X184666470Y-70954502D02*
X184666470Y-71669210D01*
X184666470Y-71669210D02*
X184618822Y-71812151D01*
X184618822Y-71812151D02*
X184523528Y-71907446D01*
X184523528Y-71907446D02*
X184380586Y-71955093D01*
X184380586Y-71955093D02*
X184285292Y-71955093D01*
X185095294Y-71049796D02*
X185142941Y-71002149D01*
X185142941Y-71002149D02*
X185238236Y-70954502D01*
X185238236Y-70954502D02*
X185476472Y-70954502D01*
X185476472Y-70954502D02*
X185571766Y-71002149D01*
X185571766Y-71002149D02*
X185619413Y-71049796D01*
X185619413Y-71049796D02*
X185667061Y-71145090D01*
X185667061Y-71145090D02*
X185667061Y-71240385D01*
X185667061Y-71240385D02*
X185619413Y-71383326D01*
X185619413Y-71383326D02*
X185047647Y-71955093D01*
X185047647Y-71955093D02*
X185667061Y-71955093D01*
X185454819Y-78916666D02*
X184978628Y-79249999D01*
X185454819Y-79488094D02*
X184454819Y-79488094D01*
X184454819Y-79488094D02*
X184454819Y-79107142D01*
X184454819Y-79107142D02*
X184502438Y-79011904D01*
X184502438Y-79011904D02*
X184550057Y-78964285D01*
X184550057Y-78964285D02*
X184645295Y-78916666D01*
X184645295Y-78916666D02*
X184788152Y-78916666D01*
X184788152Y-78916666D02*
X184883390Y-78964285D01*
X184883390Y-78964285D02*
X184931009Y-79011904D01*
X184931009Y-79011904D02*
X184978628Y-79107142D01*
X184978628Y-79107142D02*
X184978628Y-79488094D01*
X184788152Y-78059523D02*
X185454819Y-78059523D01*
X184407200Y-78297618D02*
X185121485Y-78535713D01*
X185121485Y-78535713D02*
X185121485Y-77916666D01*
X205954819Y-78666666D02*
X205478628Y-78999999D01*
X205954819Y-79238094D02*
X204954819Y-79238094D01*
X204954819Y-79238094D02*
X204954819Y-78857142D01*
X204954819Y-78857142D02*
X205002438Y-78761904D01*
X205002438Y-78761904D02*
X205050057Y-78714285D01*
X205050057Y-78714285D02*
X205145295Y-78666666D01*
X205145295Y-78666666D02*
X205288152Y-78666666D01*
X205288152Y-78666666D02*
X205383390Y-78714285D01*
X205383390Y-78714285D02*
X205431009Y-78761904D01*
X205431009Y-78761904D02*
X205478628Y-78857142D01*
X205478628Y-78857142D02*
X205478628Y-79238094D01*
X204954819Y-77761904D02*
X204954819Y-78238094D01*
X204954819Y-78238094D02*
X205431009Y-78285713D01*
X205431009Y-78285713D02*
X205383390Y-78238094D01*
X205383390Y-78238094D02*
X205335771Y-78142856D01*
X205335771Y-78142856D02*
X205335771Y-77904761D01*
X205335771Y-77904761D02*
X205383390Y-77809523D01*
X205383390Y-77809523D02*
X205431009Y-77761904D01*
X205431009Y-77761904D02*
X205526247Y-77714285D01*
X205526247Y-77714285D02*
X205764342Y-77714285D01*
X205764342Y-77714285D02*
X205859580Y-77761904D01*
X205859580Y-77761904D02*
X205907200Y-77809523D01*
X205907200Y-77809523D02*
X205954819Y-77904761D01*
X205954819Y-77904761D02*
X205954819Y-78142856D01*
X205954819Y-78142856D02*
X205907200Y-78238094D01*
X205907200Y-78238094D02*
X205859580Y-78285713D01*
X195367895Y-88804818D02*
X195367895Y-89614341D01*
X195367895Y-89614341D02*
X195415514Y-89709579D01*
X195415514Y-89709579D02*
X195463133Y-89757199D01*
X195463133Y-89757199D02*
X195558371Y-89804818D01*
X195558371Y-89804818D02*
X195748847Y-89804818D01*
X195748847Y-89804818D02*
X195844085Y-89757199D01*
X195844085Y-89757199D02*
X195891704Y-89709579D01*
X195891704Y-89709579D02*
X195939323Y-89614341D01*
X195939323Y-89614341D02*
X195939323Y-88804818D01*
X196367895Y-88900056D02*
X196415514Y-88852437D01*
X196415514Y-88852437D02*
X196510752Y-88804818D01*
X196510752Y-88804818D02*
X196748847Y-88804818D01*
X196748847Y-88804818D02*
X196844085Y-88852437D01*
X196844085Y-88852437D02*
X196891704Y-88900056D01*
X196891704Y-88900056D02*
X196939323Y-88995294D01*
X196939323Y-88995294D02*
X196939323Y-89090532D01*
X196939323Y-89090532D02*
X196891704Y-89233389D01*
X196891704Y-89233389D02*
X196320276Y-89804818D01*
X196320276Y-89804818D02*
X196939323Y-89804818D01*
X194000000Y-85454819D02*
X194000000Y-85692914D01*
X193761905Y-85597676D02*
X194000000Y-85692914D01*
X194000000Y-85692914D02*
X194238095Y-85597676D01*
X193857143Y-85883390D02*
X194000000Y-85692914D01*
X194000000Y-85692914D02*
X194142857Y-85883390D01*
X189583333Y-96954819D02*
X189250000Y-96478628D01*
X189011905Y-96954819D02*
X189011905Y-95954819D01*
X189011905Y-95954819D02*
X189392857Y-95954819D01*
X189392857Y-95954819D02*
X189488095Y-96002438D01*
X189488095Y-96002438D02*
X189535714Y-96050057D01*
X189535714Y-96050057D02*
X189583333Y-96145295D01*
X189583333Y-96145295D02*
X189583333Y-96288152D01*
X189583333Y-96288152D02*
X189535714Y-96383390D01*
X189535714Y-96383390D02*
X189488095Y-96431009D01*
X189488095Y-96431009D02*
X189392857Y-96478628D01*
X189392857Y-96478628D02*
X189011905Y-96478628D01*
X190535714Y-96954819D02*
X189964286Y-96954819D01*
X190250000Y-96954819D02*
X190250000Y-95954819D01*
X190250000Y-95954819D02*
X190154762Y-96097676D01*
X190154762Y-96097676D02*
X190059524Y-96192914D01*
X190059524Y-96192914D02*
X189964286Y-96240533D01*
X188583333Y-98204819D02*
X188011905Y-98204819D01*
X188297619Y-98204819D02*
X188297619Y-97204819D01*
X188297619Y-97204819D02*
X188202381Y-97347676D01*
X188202381Y-97347676D02*
X188107143Y-97442914D01*
X188107143Y-97442914D02*
X188011905Y-97490533D01*
X189202381Y-97204819D02*
X189297619Y-97204819D01*
X189297619Y-97204819D02*
X189392857Y-97252438D01*
X189392857Y-97252438D02*
X189440476Y-97300057D01*
X189440476Y-97300057D02*
X189488095Y-97395295D01*
X189488095Y-97395295D02*
X189535714Y-97585771D01*
X189535714Y-97585771D02*
X189535714Y-97823866D01*
X189535714Y-97823866D02*
X189488095Y-98014342D01*
X189488095Y-98014342D02*
X189440476Y-98109580D01*
X189440476Y-98109580D02*
X189392857Y-98157200D01*
X189392857Y-98157200D02*
X189297619Y-98204819D01*
X189297619Y-98204819D02*
X189202381Y-98204819D01*
X189202381Y-98204819D02*
X189107143Y-98157200D01*
X189107143Y-98157200D02*
X189059524Y-98109580D01*
X189059524Y-98109580D02*
X189011905Y-98014342D01*
X189011905Y-98014342D02*
X188964286Y-97823866D01*
X188964286Y-97823866D02*
X188964286Y-97585771D01*
X188964286Y-97585771D02*
X189011905Y-97395295D01*
X189011905Y-97395295D02*
X189059524Y-97300057D01*
X189059524Y-97300057D02*
X189107143Y-97252438D01*
X189107143Y-97252438D02*
X189202381Y-97204819D01*
X190154762Y-97204819D02*
X190250000Y-97204819D01*
X190250000Y-97204819D02*
X190345238Y-97252438D01*
X190345238Y-97252438D02*
X190392857Y-97300057D01*
X190392857Y-97300057D02*
X190440476Y-97395295D01*
X190440476Y-97395295D02*
X190488095Y-97585771D01*
X190488095Y-97585771D02*
X190488095Y-97823866D01*
X190488095Y-97823866D02*
X190440476Y-98014342D01*
X190440476Y-98014342D02*
X190392857Y-98109580D01*
X190392857Y-98109580D02*
X190345238Y-98157200D01*
X190345238Y-98157200D02*
X190250000Y-98204819D01*
X190250000Y-98204819D02*
X190154762Y-98204819D01*
X190154762Y-98204819D02*
X190059524Y-98157200D01*
X190059524Y-98157200D02*
X190011905Y-98109580D01*
X190011905Y-98109580D02*
X189964286Y-98014342D01*
X189964286Y-98014342D02*
X189916667Y-97823866D01*
X189916667Y-97823866D02*
X189916667Y-97585771D01*
X189916667Y-97585771D02*
X189964286Y-97395295D01*
X189964286Y-97395295D02*
X190011905Y-97300057D01*
X190011905Y-97300057D02*
X190059524Y-97252438D01*
X190059524Y-97252438D02*
X190154762Y-97204819D01*
X190916667Y-98204819D02*
X190916667Y-97204819D01*
X191488095Y-98204819D02*
X191059524Y-97633390D01*
X191488095Y-97204819D02*
X190916667Y-97776247D01*
X194916470Y-70704502D02*
X194916470Y-71419210D01*
X194916470Y-71419210D02*
X194868822Y-71562151D01*
X194868822Y-71562151D02*
X194773528Y-71657446D01*
X194773528Y-71657446D02*
X194630586Y-71705093D01*
X194630586Y-71705093D02*
X194535292Y-71705093D01*
X195917061Y-71705093D02*
X195345294Y-71705093D01*
X195631177Y-71705093D02*
X195631177Y-70704502D01*
X195631177Y-70704502D02*
X195535883Y-70847443D01*
X195535883Y-70847443D02*
X195440589Y-70942738D01*
X195440589Y-70942738D02*
X195345294Y-70990385D01*
X195704819Y-78666666D02*
X195228628Y-78999999D01*
X195704819Y-79238094D02*
X194704819Y-79238094D01*
X194704819Y-79238094D02*
X194704819Y-78857142D01*
X194704819Y-78857142D02*
X194752438Y-78761904D01*
X194752438Y-78761904D02*
X194800057Y-78714285D01*
X194800057Y-78714285D02*
X194895295Y-78666666D01*
X194895295Y-78666666D02*
X195038152Y-78666666D01*
X195038152Y-78666666D02*
X195133390Y-78714285D01*
X195133390Y-78714285D02*
X195181009Y-78761904D01*
X195181009Y-78761904D02*
X195228628Y-78857142D01*
X195228628Y-78857142D02*
X195228628Y-79238094D01*
X194704819Y-78333332D02*
X194704819Y-77714285D01*
X194704819Y-77714285D02*
X195085771Y-78047618D01*
X195085771Y-78047618D02*
X195085771Y-77904761D01*
X195085771Y-77904761D02*
X195133390Y-77809523D01*
X195133390Y-77809523D02*
X195181009Y-77761904D01*
X195181009Y-77761904D02*
X195276247Y-77714285D01*
X195276247Y-77714285D02*
X195514342Y-77714285D01*
X195514342Y-77714285D02*
X195609580Y-77761904D01*
X195609580Y-77761904D02*
X195657200Y-77809523D01*
X195657200Y-77809523D02*
X195704819Y-77904761D01*
X195704819Y-77904761D02*
X195704819Y-78190475D01*
X195704819Y-78190475D02*
X195657200Y-78285713D01*
X195657200Y-78285713D02*
X195609580Y-78333332D01*
D12*
%TO.C,U1*%
X154480000Y-120300000D02*
X179880000Y-120300000D01*
%TO.C,J3*%
X201200000Y-63100000D02*
X209300000Y-63100000D01*
X201200000Y-70100000D02*
X201200000Y-63100000D01*
X209300000Y-63100000D02*
X209300000Y-70100000D01*
X209300000Y-70100000D02*
X201200000Y-70100000D01*
D13*
%TO.C,R2*%
X197477500Y-94012742D02*
X197477500Y-94487258D01*
X198522500Y-94012742D02*
X198522500Y-94487258D01*
D12*
%TO.C,J2*%
X181450000Y-63100000D02*
X189550000Y-63100000D01*
X181450000Y-70100000D02*
X181450000Y-63100000D01*
X189550000Y-63100000D02*
X189550000Y-70100000D01*
X189550000Y-70100000D02*
X181450000Y-70100000D01*
D13*
%TO.C,R4*%
X185000000Y-74710000D02*
X185000000Y-75480000D01*
X185000000Y-82790000D02*
X185000000Y-82020000D01*
X183630000Y-82020000D02*
X186370000Y-82020000D01*
X186370000Y-75480000D01*
X183630000Y-75480000D01*
X183630000Y-82020000D01*
%TO.C,R5*%
X205500000Y-74460000D02*
X205500000Y-75230000D01*
X205500000Y-82540000D02*
X205500000Y-81770000D01*
X204130000Y-81770000D02*
X206870000Y-81770000D01*
X206870000Y-75230000D01*
X204130000Y-75230000D01*
X204130000Y-81770000D01*
D14*
%TO.C,U2*%
X193754900Y-92029699D02*
X198504700Y-92029699D01*
X198504700Y-86670299D02*
X193754900Y-86670299D01*
D15*
G36*
X200092200Y-90190498D02*
G01*
X199838200Y-90190498D01*
X199838200Y-89809498D01*
X200092200Y-89809498D01*
X200092200Y-90190498D01*
G37*
D13*
%TO.C,R1*%
X189227500Y-94012742D02*
X189227500Y-94487258D01*
X190272500Y-94012742D02*
X190272500Y-94487258D01*
D12*
%TO.C,J1*%
X191200000Y-63100000D02*
X199300000Y-63100000D01*
X191200000Y-70100000D02*
X191200000Y-63100000D01*
X199300000Y-63100000D02*
X199300000Y-70100000D01*
X199300000Y-70100000D02*
X191200000Y-70100000D01*
D13*
%TO.C,R3*%
X195250000Y-74460000D02*
X195250000Y-75230000D01*
X195250000Y-82540000D02*
X195250000Y-81770000D01*
X193880000Y-81770000D02*
X196620000Y-81770000D01*
X196620000Y-75230000D01*
X193880000Y-75230000D01*
X193880000Y-81770000D01*
%TD*%
M02*
