%TF.GenerationSoftware,KiCad,Pcbnew,9.0.6*%
%TF.CreationDate,2025-11-23T12:16:46-08:00*%
%TF.ProjectId,CurrentTransformer,43757272-656e-4745-9472-616e73666f72,rev?*%
%TF.SameCoordinates,Original*%
%TF.FileFunction,Soldermask,Top*%
%TF.FilePolarity,Negative*%
%FSLAX46Y46*%
G04 Gerber Fmt 4.6, Leading zero omitted, Abs format (unit mm)*
G04 Created by KiCad (PCBNEW 9.0.6) date 2025-11-23 12:16:46*
%MOMM*%
%LPD*%
G01*
G04 APERTURE LIST*
G04 Aperture macros list*
%AMRoundRect*
0 Rectangle with rounded corners*
0 $1 Rounding radius*
0 $2 $3 $4 $5 $6 $7 $8 $9 X,Y pos of 4 corners*
0 Add a 4 corners polygon primitive as box body*
4,1,4,$2,$3,$4,$5,$6,$7,$8,$9,$2,$3,0*
0 Add four circle primitives for the rounded corners*
1,1,$1+$1,$2,$3*
1,1,$1+$1,$4,$5*
1,1,$1+$1,$6,$7*
1,1,$1+$1,$8,$9*
0 Add four rect primitives between the rounded corners*
20,1,$1+$1,$2,$3,$4,$5,0*
20,1,$1+$1,$4,$5,$6,$7,0*
20,1,$1+$1,$6,$7,$8,$9,0*
20,1,$1+$1,$8,$9,$2,$3,0*%
G04 Aperture macros list end*
%ADD10C,2.083600*%
%ADD11RoundRect,0.102000X-0.900000X-0.900000X0.900000X-0.900000X0.900000X0.900000X-0.900000X0.900000X0*%
%ADD12C,2.004000*%
%ADD13RoundRect,0.200000X-0.275000X0.200000X-0.275000X-0.200000X0.275000X-0.200000X0.275000X0.200000X0*%
%ADD14C,1.600000*%
%ADD15R,1.168400X0.304800*%
G04 APERTURE END LIST*
D10*
%TO.C,U1*%
X155750000Y-119030000D03*
X155750000Y-116490000D03*
X155750000Y-113950000D03*
X155750000Y-111410000D03*
X155750000Y-108870000D03*
X155750000Y-106330000D03*
X155750000Y-103790000D03*
X155750000Y-101250000D03*
X155750000Y-98710000D03*
X155750000Y-96170000D03*
X155750000Y-93630000D03*
X155750000Y-91090000D03*
X155750000Y-88550000D03*
X155750000Y-86010000D03*
X155750000Y-83470000D03*
X155750000Y-80930000D03*
X155750000Y-78390000D03*
X155750000Y-75850000D03*
X155750000Y-73310000D03*
X155750000Y-70770000D03*
X178610000Y-119030000D03*
X178610000Y-116490000D03*
X178610000Y-113950000D03*
X178610000Y-111410000D03*
X178610000Y-108870000D03*
X178610000Y-106330000D03*
X178610000Y-103790000D03*
X178610000Y-101250000D03*
X178610000Y-98710000D03*
X178610000Y-96170000D03*
X178610000Y-93630000D03*
X178610000Y-91090000D03*
X178610000Y-88550000D03*
X178610000Y-86010000D03*
X178610000Y-83470000D03*
X178610000Y-80930000D03*
X178610000Y-78390000D03*
X178610000Y-75850000D03*
X178610000Y-73310000D03*
X178610000Y-70770000D03*
%TD*%
D11*
%TO.C,J3*%
X203500000Y-66500000D03*
D12*
X207000000Y-66500000D03*
%TD*%
D13*
%TO.C,R2*%
X198000000Y-93425000D03*
X198000000Y-95075000D03*
%TD*%
D11*
%TO.C,J2*%
X183750000Y-66500000D03*
D12*
X187250000Y-66500000D03*
%TD*%
D14*
%TO.C,R4*%
X185000000Y-83830000D03*
X185000000Y-73670000D03*
%TD*%
%TO.C,R5*%
X205500000Y-83580000D03*
X205500000Y-73420000D03*
%TD*%
D15*
%TO.C,U2*%
X193259600Y-87399998D03*
X193259600Y-88049999D03*
X193259600Y-88700000D03*
X193259600Y-89349999D03*
X193259600Y-89999998D03*
X193259600Y-90649999D03*
X193259600Y-91299998D03*
X199000000Y-91300000D03*
X199000000Y-90649999D03*
X199000000Y-90000000D03*
X199000000Y-89349999D03*
X199000000Y-88700000D03*
X199000000Y-88049999D03*
X199000000Y-87400000D03*
%TD*%
D13*
%TO.C,R1*%
X189750000Y-93425000D03*
X189750000Y-95075000D03*
%TD*%
D11*
%TO.C,J1*%
X193500000Y-66500000D03*
D12*
X197000000Y-66500000D03*
%TD*%
D14*
%TO.C,R3*%
X195250000Y-83580000D03*
X195250000Y-73420000D03*
%TD*%
M02*
