%TF.GenerationSoftware,KiCad,Pcbnew,9.0.6*%
%TF.CreationDate,2025-11-23T12:16:46-08:00*%
%TF.ProjectId,CurrentTransformer,43757272-656e-4745-9472-616e73666f72,rev?*%
%TF.SameCoordinates,Original*%
%TF.FileFunction,Copper,L1,Top*%
%TF.FilePolarity,Positive*%
%FSLAX46Y46*%
G04 Gerber Fmt 4.6, Leading zero omitted, Abs format (unit mm)*
G04 Created by KiCad (PCBNEW 9.0.6) date 2025-11-23 12:16:46*
%MOMM*%
%LPD*%
G01*
G04 APERTURE LIST*
G04 Aperture macros list*
%AMRoundRect*
0 Rectangle with rounded corners*
0 $1 Rounding radius*
0 $2 $3 $4 $5 $6 $7 $8 $9 X,Y pos of 4 corners*
0 Add a 4 corners polygon primitive as box body*
4,1,4,$2,$3,$4,$5,$6,$7,$8,$9,$2,$3,0*
0 Add four circle primitives for the rounded corners*
1,1,$1+$1,$2,$3*
1,1,$1+$1,$4,$5*
1,1,$1+$1,$6,$7*
1,1,$1+$1,$8,$9*
0 Add four rect primitives between the rounded corners*
20,1,$1+$1,$2,$3,$4,$5,0*
20,1,$1+$1,$4,$5,$6,$7,0*
20,1,$1+$1,$6,$7,$8,$9,0*
20,1,$1+$1,$8,$9,$2,$3,0*%
G04 Aperture macros list end*
%TA.AperFunction,ComponentPad*%
%ADD10C,1.879600*%
%TD*%
%TA.AperFunction,ComponentPad*%
%ADD11R,1.800000X1.800000*%
%TD*%
%TA.AperFunction,ComponentPad*%
%ADD12C,1.800000*%
%TD*%
%TA.AperFunction,SMDPad,CuDef*%
%ADD13RoundRect,0.200000X-0.275000X0.200000X-0.275000X-0.200000X0.275000X-0.200000X0.275000X0.200000X0*%
%TD*%
%TA.AperFunction,ComponentPad*%
%ADD14C,1.600000*%
%TD*%
%TA.AperFunction,SMDPad,CuDef*%
%ADD15R,1.168400X0.304800*%
%TD*%
%TA.AperFunction,ViaPad*%
%ADD16C,0.600000*%
%TD*%
%TA.AperFunction,Conductor*%
%ADD17C,0.200000*%
%TD*%
G04 APERTURE END LIST*
D10*
%TO.P,U1,J1_1,GND*%
%TO.N,GND*%
X155750000Y-119030000D03*
%TO.P,U1,J1_2,VUSB*%
%TO.N,VUSB*%
X155750000Y-116490000D03*
%TO.P,U1,J1_3,VBAT*%
%TO.N,VBAT*%
X155750000Y-113950000D03*
%TO.P,U1,J1_4,GND*%
%TO.N,GND*%
X155750000Y-111410000D03*
%TO.P,U1,J1_5,3.3V/3V3*%
%TO.N,+3.3V*%
X155750000Y-108870000D03*
%TO.P,U1,J1_6,RESET/~{RST}*%
%TO.N,unconnected-(U1-RESET{slash}~{RST}-PadJ1_6)*%
X155750000Y-106330000D03*
%TO.P,U1,J1_7,TOUCH4/HSPI_ID/ADC2_4/GPIO13/13*%
%TO.N,unconnected-(U1-TOUCH4{slash}HSPI_ID{slash}ADC2_4{slash}GPIO13{slash}13-PadJ1_7)*%
X155750000Y-103790000D03*
%TO.P,U1,J1_8,TOUCH5/HSPI_Q/ADC2_5/GPIO12/12*%
%TO.N,unconnected-(U1-TOUCH5{slash}HSPI_Q{slash}ADC2_5{slash}GPIO12{slash}12-PadJ1_8)*%
X155750000Y-101250000D03*
%TO.P,U1,J1_9,TOUCH6/HSPI_CLK/ADC2_6/GPIO14/14*%
%TO.N,unconnected-(U1-TOUCH6{slash}HSPI_CLK{slash}ADC2_6{slash}GPIO14{slash}14-PadJ1_9)*%
X155750000Y-98710000D03*
%TO.P,U1,J1_10,TOUCH7/ADC2_7/GPIO27/27*%
%TO.N,unconnected-(U1-TOUCH7{slash}ADC2_7{slash}GPIO27{slash}27-PadJ1_10)*%
X155750000Y-96170000D03*
%TO.P,U1,J1_11,DAC2/ADC2_9/GPIO26/26*%
%TO.N,unconnected-(U1-DAC2{slash}ADC2_9{slash}GPIO26{slash}26-PadJ1_11)*%
X155750000Y-93630000D03*
%TO.P,U1,J1_12,DAC1/ADC2_8/GPIO25/25*%
%TO.N,unconnected-(U1-DAC1{slash}ADC2_8{slash}GPIO25{slash}25-PadJ1_12)*%
X155750000Y-91090000D03*
%TO.P,U1,J1_13,VDET2/ADC1_7/GPIO35/35*%
%TO.N,/V_Shunt3*%
X155750000Y-88550000D03*
%TO.P,U1,J1_14,VDET1/ADC1_6/GPIO34/34*%
%TO.N,/V_Shunt2*%
X155750000Y-86010000D03*
%TO.P,U1,J1_15,TOUCH8/ADC1_5/GPIO33/XTAL32/33*%
%TO.N,/V_Shunt1*%
X155750000Y-83470000D03*
%TO.P,U1,J1_16,TOUCH9/ADC1_4/GPIO32/XTAL32/32*%
%TO.N,/Bias*%
X155750000Y-80930000D03*
%TO.P,U1,J1_17,ADC1_3/GPIO39/SENSEVN/39*%
%TO.N,unconnected-(U1-ADC1_3{slash}GPIO39{slash}SENSEVN{slash}39-PadJ1_17)*%
X155750000Y-78390000D03*
%TO.P,U1,J1_18,ADC1_2/GPIO38/CAPVN/38*%
%TO.N,unconnected-(U1-ADC1_2{slash}GPIO38{slash}CAPVN{slash}38-PadJ1_18)*%
X155750000Y-75850000D03*
%TO.P,U1,J1_19,ADC1_1/GPIO37/CAPVP/37*%
%TO.N,unconnected-(U1-ADC1_1{slash}GPIO37{slash}CAPVP{slash}37-PadJ1_19)*%
X155750000Y-73310000D03*
%TO.P,U1,J1_20,ADC1_0/GPIO36/SENSEVP/36*%
%TO.N,unconnected-(U1-ADC1_0{slash}GPIO36{slash}SENSEVP{slash}36-PadJ1_20)*%
X155750000Y-70770000D03*
%TO.P,U1,J2_1,GND*%
%TO.N,GND*%
X178610000Y-119030000D03*
%TO.P,U1,J2_2,VUSB*%
%TO.N,VUSB*%
X178610000Y-116490000D03*
%TO.P,U1,J2_3,VBAT*%
%TO.N,VBAT*%
X178610000Y-113950000D03*
%TO.P,U1,J2_4,GND*%
%TO.N,GND*%
X178610000Y-111410000D03*
%TO.P,U1,J2_5,3.3V/3V3*%
%TO.N,+3.3V*%
X178610000Y-108870000D03*
%TO.P,U1,J2_6,U2_RXD/GPIO16/16*%
%TO.N,unconnected-(U1-U2_RXD{slash}GPIO16{slash}16-PadJ2_6)*%
X178610000Y-106330000D03*
%TO.P,U1,J2_7,U2_TXD/GPIO17/17*%
%TO.N,unconnected-(U1-U2_TXD{slash}GPIO17{slash}17-PadJ2_7)*%
X178610000Y-103790000D03*
%TO.P,U1,J2_8,TOUCH0/HSPI_HD/ADC2_0/GPIO4/4*%
%TO.N,unconnected-(U1-TOUCH0{slash}HSPI_HD{slash}ADC2_0{slash}GPIO4{slash}4-PadJ2_8)*%
X178610000Y-101250000D03*
%TO.P,U1,J2_9,BUTTON/TOUCH1/ADC2_1/GPIO0/CLK1/0*%
%TO.N,unconnected-(U1-BUTTON{slash}TOUCH1{slash}ADC2_1{slash}GPIO0{slash}CLK1{slash}0-PadJ2_9)*%
X178610000Y-98710000D03*
%TO.P,U1,J2_10,TOUCH2/HSPI_WP/ADC2_2/GPIO2/CS/2*%
%TO.N,unconnected-(U1-TOUCH2{slash}HSPI_WP{slash}ADC2_2{slash}GPIO2{slash}CS{slash}2-PadJ2_10)*%
X178610000Y-96170000D03*
%TO.P,U1,J2_11,TOUCH3/HSPI_CS0/ADC2_3/GPIO15/15*%
%TO.N,unconnected-(U1-TOUCH3{slash}HSPI_CS0{slash}ADC2_3{slash}GPIO15{slash}15-PadJ2_11)*%
X178610000Y-93630000D03*
%TO.P,U1,J2_12,V_SPI_CS0/LED(BLUE)/GPIO5/5*%
%TO.N,unconnected-(U1-V_SPI_CS0{slash}LED(BLUE){slash}GPIO5{slash}5-PadJ2_12)*%
X178610000Y-91090000D03*
%TO.P,U1,J2_13,V_SPI_CLK/GPIO18/SCK/18*%
%TO.N,unconnected-(U1-V_SPI_CLK{slash}GPIO18{slash}SCK{slash}18-PadJ2_13)*%
X178610000Y-88550000D03*
%TO.P,U1,J2_14,V_SPI_D/GPIO23/MOSI/23*%
%TO.N,unconnected-(U1-V_SPI_D{slash}GPIO23{slash}MOSI{slash}23-PadJ2_14)*%
X178610000Y-86010000D03*
%TO.P,U1,J2_15,U0_CTS/V_SPI_Q/GPIO19/MISO/19*%
%TO.N,unconnected-(U1-U0_CTS{slash}V_SPI_Q{slash}GPIO19{slash}MISO{slash}19-PadJ2_15)*%
X178610000Y-83470000D03*
%TO.P,U1,J2_16,U0_RTS/V_SPI_WP/GPIO22/SCL/22*%
%TO.N,unconnected-(U1-U0_RTS{slash}V_SPI_WP{slash}GPIO22{slash}SCL{slash}22-PadJ2_16)*%
X178610000Y-80930000D03*
%TO.P,U1,J2_17,U0_RXD/GPIO3/CLK2/RX*%
%TO.N,unconnected-(U1-U0_RXD{slash}GPIO3{slash}CLK2{slash}RX-PadJ2_17)*%
X178610000Y-78390000D03*
%TO.P,U1,J2_18,U0_TXD/GPIO1/CLK3/TX*%
%TO.N,unconnected-(U1-U0_TXD{slash}GPIO1{slash}CLK3{slash}TX-PadJ2_18)*%
X178610000Y-75850000D03*
%TO.P,U1,J2_19,V_SPI_HD/GPIO21/SDA/21*%
%TO.N,unconnected-(U1-V_SPI_HD{slash}GPIO21{slash}SDA{slash}21-PadJ2_19)*%
X178610000Y-73310000D03*
%TO.P,U1,J2_20,GND*%
%TO.N,GND*%
X178610000Y-70770000D03*
%TD*%
D11*
%TO.P,J3,1,Pin_1*%
%TO.N,Net-(J3-Pin_1)*%
X203500000Y-66500000D03*
D12*
%TO.P,J3,2,Pin_2*%
%TO.N,/V_Shunt3*%
X207000000Y-66500000D03*
%TD*%
D13*
%TO.P,R2,1*%
%TO.N,/Bias*%
X198000000Y-93425000D03*
%TO.P,R2,2*%
%TO.N,GND*%
X198000000Y-95075000D03*
%TD*%
D11*
%TO.P,J2,1,Pin_1*%
%TO.N,Net-(J2-Pin_1)*%
X183750000Y-66500000D03*
D12*
%TO.P,J2,2,Pin_2*%
%TO.N,/V_Shunt1*%
X187250000Y-66500000D03*
%TD*%
D14*
%TO.P,R4,1*%
%TO.N,/V_Shunt1*%
X185000000Y-83830000D03*
%TO.P,R4,2*%
%TO.N,Net-(J2-Pin_1)*%
X185000000Y-73670000D03*
%TD*%
%TO.P,R5,1*%
%TO.N,/V_Shunt3*%
X205500000Y-83580000D03*
%TO.P,R5,2*%
%TO.N,Net-(J3-Pin_1)*%
X205500000Y-73420000D03*
%TD*%
D15*
%TO.P,U2,1,OUT1*%
%TO.N,/V_Shunt1*%
X193259600Y-87399998D03*
%TO.P,U2,2,IN1-*%
X193259600Y-88049999D03*
%TO.P,U2,3,IN1+*%
%TO.N,/Bias*%
X193259600Y-88700000D03*
%TO.P,U2,4,V+*%
%TO.N,+3.3V*%
X193259600Y-89349999D03*
%TO.P,U2,5,IN2+*%
%TO.N,/Bias*%
X193259600Y-89999998D03*
%TO.P,U2,6,IN2-*%
%TO.N,/V_Shunt2*%
X193259600Y-90649999D03*
%TO.P,U2,7,OUT2*%
X193259600Y-91299998D03*
%TO.P,U2,8,OUT3*%
%TO.N,unconnected-(U2-OUT3-Pad8)*%
X199000000Y-91300000D03*
%TO.P,U2,9,IN3-*%
%TO.N,unconnected-(U2-IN3--Pad9)*%
X199000000Y-90649999D03*
%TO.P,U2,10,IN3+*%
%TO.N,unconnected-(U2-IN3+-Pad10)*%
X199000000Y-90000000D03*
%TO.P,U2,11,V-*%
%TO.N,GND*%
X199000000Y-89349999D03*
%TO.P,U2,12,IN4+*%
%TO.N,/Bias*%
X199000000Y-88700000D03*
%TO.P,U2,13,IN4-*%
%TO.N,/V_Shunt3*%
X199000000Y-88049999D03*
%TO.P,U2,14,OUT4*%
X199000000Y-87400000D03*
%TD*%
D13*
%TO.P,R1,1*%
%TO.N,+3.3V*%
X189750000Y-93425000D03*
%TO.P,R1,2*%
%TO.N,/Bias*%
X189750000Y-95075000D03*
%TD*%
D11*
%TO.P,J1,1,Pin_1*%
%TO.N,Net-(J1-Pin_1)*%
X193500000Y-66500000D03*
D12*
%TO.P,J1,2,Pin_2*%
%TO.N,/V_Shunt2*%
X197000000Y-66500000D03*
%TD*%
D14*
%TO.P,R3,1*%
%TO.N,/V_Shunt2*%
X195250000Y-83580000D03*
%TO.P,R3,2*%
%TO.N,Net-(J1-Pin_1)*%
X195250000Y-73420000D03*
%TD*%
D16*
%TO.N,/V_Shunt2*%
X192009764Y-90759764D03*
X195000000Y-88750000D03*
X194488235Y-90761765D03*
%TO.N,/V_Shunt3*%
X197000000Y-88250000D03*
%TO.N,/Bias*%
X188075000Y-95250000D03*
%TD*%
D17*
%TO.N,/V_Shunt2*%
X193259600Y-91299998D02*
X193950002Y-91299998D01*
X193950002Y-91299998D02*
X194488235Y-90761765D01*
X193259600Y-90649999D02*
X192119529Y-90649999D01*
X194899000Y-83800000D02*
X194899000Y-88649000D01*
X195250000Y-83580000D02*
X197000000Y-81830000D01*
X194899000Y-88649000D02*
X195000000Y-88750000D01*
X197000000Y-81830000D02*
X197000000Y-66500000D01*
X192119529Y-90649999D02*
X192009764Y-90759764D01*
X193259600Y-90649999D02*
X193259600Y-91299998D01*
%TO.N,/V_Shunt1*%
X193259600Y-87399998D02*
X193259600Y-88049999D01*
X193259600Y-87399998D02*
X189689602Y-83830000D01*
X156990800Y-84710800D02*
X155750000Y-83470000D01*
X184119200Y-84710800D02*
X156990800Y-84710800D01*
X189689602Y-83830000D02*
X185000000Y-83830000D01*
X185000000Y-83830000D02*
X187250000Y-81580000D01*
X185000000Y-83830000D02*
X184119200Y-84710800D01*
X187250000Y-81580000D02*
X187250000Y-66500000D01*
%TO.N,/V_Shunt3*%
X199000000Y-87400000D02*
X199000000Y-88049999D01*
X198950001Y-88000000D02*
X199000000Y-88049999D01*
X199000000Y-87400000D02*
X199930000Y-87400000D01*
X203750000Y-83580000D02*
X205500000Y-83580000D01*
X197250000Y-88000000D02*
X198950001Y-88000000D01*
X207000000Y-82080000D02*
X207000000Y-66500000D01*
X197000000Y-88250000D02*
X197250000Y-88000000D01*
X199930000Y-87400000D02*
X203750000Y-83580000D01*
X205500000Y-83580000D02*
X207000000Y-82080000D01*
%TO.N,+3.3V*%
X178610000Y-108870000D02*
X185000000Y-102480000D01*
X187825000Y-93425000D02*
X189750000Y-93425000D01*
X189750000Y-92170998D02*
X192570999Y-89349999D01*
X189750000Y-93425000D02*
X189750000Y-92170998D01*
X178610000Y-108870000D02*
X155750000Y-108870000D01*
X185000000Y-102480000D02*
X185000000Y-96250000D01*
X185000000Y-96250000D02*
X187825000Y-93425000D01*
X192570999Y-89349999D02*
X193259600Y-89349999D01*
%TO.N,/Bias*%
X201750000Y-92500000D02*
X201750000Y-89750000D01*
X189750000Y-95075000D02*
X196350000Y-95075000D01*
X201750000Y-89750000D02*
X200700000Y-88700000D01*
X189575000Y-95250000D02*
X189750000Y-95075000D01*
X196350000Y-95075000D02*
X198000000Y-93425000D01*
X194574998Y-89999998D02*
X198000000Y-93425000D01*
X194574998Y-89231198D02*
X194574998Y-89999998D01*
X200700000Y-88700000D02*
X199000000Y-88700000D01*
X198000000Y-93425000D02*
X200825000Y-93425000D01*
X194043800Y-88700000D02*
X194574998Y-89231198D01*
X188075000Y-95250000D02*
X189575000Y-95250000D01*
X194043800Y-88700000D02*
X193259600Y-88700000D01*
X194574998Y-89999998D02*
X193259600Y-89999998D01*
X200825000Y-93425000D02*
X201750000Y-92500000D01*
%TO.N,VBAT*%
X155750000Y-113950000D02*
X178610000Y-113950000D01*
%TO.N,VUSB*%
X178610000Y-116490000D02*
X155750000Y-116490000D01*
%TO.N,Net-(J1-Pin_1)*%
X195250000Y-68250000D02*
X193500000Y-66500000D01*
X195250000Y-73420000D02*
X195250000Y-68250000D01*
%TO.N,Net-(J2-Pin_1)*%
X185000000Y-67750000D02*
X183750000Y-66500000D01*
X185000000Y-73670000D02*
X185000000Y-67750000D01*
%TO.N,Net-(J3-Pin_1)*%
X205500000Y-73420000D02*
X205500000Y-68500000D01*
X205500000Y-68500000D02*
X203500000Y-66500000D01*
%TD*%
%TA.AperFunction,Conductor*%
%TO.N,GND*%
G36*
X177485604Y-109190185D02*
G01*
X177531359Y-109242989D01*
X177536496Y-109256181D01*
X177553244Y-109307727D01*
X177634730Y-109467651D01*
X177740222Y-109612849D01*
X177740226Y-109612854D01*
X177867145Y-109739773D01*
X177867150Y-109739777D01*
X178012351Y-109845271D01*
X178044096Y-109861446D01*
X178094893Y-109909420D01*
X178111688Y-109977241D01*
X178089151Y-110043376D01*
X178044097Y-110082416D01*
X177855376Y-110178575D01*
X177783992Y-110230438D01*
X177783991Y-110230439D01*
X178474057Y-110920504D01*
X178413919Y-110936619D01*
X178298080Y-111003498D01*
X178203498Y-111098080D01*
X178136619Y-111213919D01*
X178120504Y-111274057D01*
X177430439Y-110583991D01*
X177430438Y-110583992D01*
X177378575Y-110655376D01*
X177275683Y-110857311D01*
X177205653Y-111072841D01*
X177205653Y-111072844D01*
X177170200Y-111296685D01*
X177170200Y-111523314D01*
X177205653Y-111747155D01*
X177205653Y-111747158D01*
X177275683Y-111962688D01*
X177378573Y-112164620D01*
X177430439Y-112236006D01*
X177430439Y-112236007D01*
X178120504Y-111545941D01*
X178136619Y-111606081D01*
X178203498Y-111721920D01*
X178298080Y-111816502D01*
X178413919Y-111883381D01*
X178474057Y-111899494D01*
X177783991Y-112589559D01*
X177855379Y-112641426D01*
X178044097Y-112737583D01*
X178094893Y-112785558D01*
X178111688Y-112853379D01*
X178089151Y-112919513D01*
X178044099Y-112958552D01*
X178012349Y-112974729D01*
X177867150Y-113080222D01*
X177867145Y-113080226D01*
X177740226Y-113207145D01*
X177740222Y-113207150D01*
X177634730Y-113352348D01*
X177553244Y-113512272D01*
X177536496Y-113563819D01*
X177497058Y-113621494D01*
X177432699Y-113648692D01*
X177418565Y-113649500D01*
X156941435Y-113649500D01*
X156874396Y-113629815D01*
X156828641Y-113577011D01*
X156823504Y-113563819D01*
X156806755Y-113512272D01*
X156725269Y-113352348D01*
X156619777Y-113207150D01*
X156619773Y-113207145D01*
X156492854Y-113080226D01*
X156492849Y-113080222D01*
X156347646Y-112974727D01*
X156347645Y-112974726D01*
X156315902Y-112958552D01*
X156265106Y-112910578D01*
X156248311Y-112842757D01*
X156270849Y-112776622D01*
X156315902Y-112737583D01*
X156504620Y-112641426D01*
X156576006Y-112589559D01*
X155885942Y-111899495D01*
X155946081Y-111883381D01*
X156061920Y-111816502D01*
X156156502Y-111721920D01*
X156223381Y-111606081D01*
X156239495Y-111545942D01*
X156929559Y-112236006D01*
X156981426Y-112164620D01*
X157084316Y-111962688D01*
X157154346Y-111747158D01*
X157154346Y-111747155D01*
X157189800Y-111523314D01*
X157189800Y-111296685D01*
X157154346Y-111072844D01*
X157154346Y-111072841D01*
X157084316Y-110857311D01*
X156981426Y-110655379D01*
X156929559Y-110583992D01*
X156929559Y-110583991D01*
X156239494Y-111274056D01*
X156223381Y-111213919D01*
X156156502Y-111098080D01*
X156061920Y-111003498D01*
X155946081Y-110936619D01*
X155885940Y-110920504D01*
X156576007Y-110230439D01*
X156504620Y-110178573D01*
X156315902Y-110082416D01*
X156265106Y-110034441D01*
X156248311Y-109966620D01*
X156270849Y-109900485D01*
X156315901Y-109861446D01*
X156347647Y-109845272D01*
X156492856Y-109739772D01*
X156619772Y-109612856D01*
X156725272Y-109467647D01*
X156806757Y-109307723D01*
X156823504Y-109256180D01*
X156862942Y-109198506D01*
X156927301Y-109171308D01*
X156941435Y-109170500D01*
X177418565Y-109170500D01*
X177485604Y-109190185D01*
G37*
%TD.AperFunction*%
%TA.AperFunction,Conductor*%
G36*
X209942539Y-62156524D02*
G01*
X209988294Y-62209328D01*
X209999500Y-62260839D01*
X209999500Y-121125500D01*
X209979815Y-121192539D01*
X209927011Y-121238294D01*
X209875500Y-121249500D01*
X153624500Y-121249500D01*
X153557461Y-121229815D01*
X153511706Y-121177011D01*
X153500500Y-121125500D01*
X153500500Y-118916685D01*
X154310200Y-118916685D01*
X154310200Y-119143314D01*
X154345653Y-119367155D01*
X154345653Y-119367158D01*
X154415683Y-119582688D01*
X154518573Y-119784620D01*
X154570439Y-119856006D01*
X154570439Y-119856007D01*
X155260504Y-119165941D01*
X155276619Y-119226081D01*
X155343498Y-119341920D01*
X155438080Y-119436502D01*
X155553919Y-119503381D01*
X155614057Y-119519494D01*
X154923991Y-120209559D01*
X154995379Y-120261426D01*
X155197311Y-120364316D01*
X155412842Y-120434346D01*
X155636686Y-120469800D01*
X155863314Y-120469800D01*
X156087155Y-120434346D01*
X156087158Y-120434346D01*
X156302688Y-120364316D01*
X156504620Y-120261426D01*
X156576006Y-120209559D01*
X155885942Y-119519495D01*
X155946081Y-119503381D01*
X156061920Y-119436502D01*
X156156502Y-119341920D01*
X156223381Y-119226081D01*
X156239495Y-119165942D01*
X156929559Y-119856006D01*
X156981426Y-119784620D01*
X157084316Y-119582688D01*
X157154346Y-119367158D01*
X157154346Y-119367155D01*
X157189800Y-119143314D01*
X157189800Y-118916685D01*
X157154346Y-118692844D01*
X157154346Y-118692841D01*
X157084316Y-118477311D01*
X156981426Y-118275379D01*
X156929559Y-118203992D01*
X156929559Y-118203991D01*
X156239494Y-118894056D01*
X156223381Y-118833919D01*
X156156502Y-118718080D01*
X156061920Y-118623498D01*
X155946081Y-118556619D01*
X155885940Y-118540504D01*
X156576007Y-117850439D01*
X156504620Y-117798573D01*
X156315902Y-117702416D01*
X156265106Y-117654441D01*
X156248311Y-117586620D01*
X156270849Y-117520485D01*
X156315901Y-117481446D01*
X156347647Y-117465272D01*
X156492856Y-117359772D01*
X156619772Y-117232856D01*
X156725272Y-117087647D01*
X156806757Y-116927723D01*
X156823504Y-116876180D01*
X156862942Y-116818506D01*
X156927301Y-116791308D01*
X156941435Y-116790500D01*
X177418565Y-116790500D01*
X177485604Y-116810185D01*
X177531359Y-116862989D01*
X177536496Y-116876181D01*
X177553244Y-116927727D01*
X177634730Y-117087651D01*
X177740222Y-117232849D01*
X177740226Y-117232854D01*
X177867145Y-117359773D01*
X177867150Y-117359777D01*
X178012351Y-117465271D01*
X178044096Y-117481446D01*
X178094893Y-117529420D01*
X178111688Y-117597241D01*
X178089151Y-117663376D01*
X178044097Y-117702416D01*
X177855376Y-117798575D01*
X177783992Y-117850438D01*
X177783991Y-117850439D01*
X178474057Y-118540504D01*
X178413919Y-118556619D01*
X178298080Y-118623498D01*
X178203498Y-118718080D01*
X178136619Y-118833919D01*
X178120504Y-118894057D01*
X177430439Y-118203991D01*
X177430438Y-118203992D01*
X177378575Y-118275376D01*
X177275683Y-118477311D01*
X177205653Y-118692841D01*
X177205653Y-118692844D01*
X177170200Y-118916685D01*
X177170200Y-119143314D01*
X177205653Y-119367155D01*
X177205653Y-119367158D01*
X177275683Y-119582688D01*
X177378573Y-119784620D01*
X177430439Y-119856006D01*
X177430439Y-119856007D01*
X178120504Y-119165941D01*
X178136619Y-119226081D01*
X178203498Y-119341920D01*
X178298080Y-119436502D01*
X178413919Y-119503381D01*
X178474057Y-119519494D01*
X177783991Y-120209559D01*
X177855379Y-120261426D01*
X178057311Y-120364316D01*
X178272842Y-120434346D01*
X178496686Y-120469800D01*
X178723314Y-120469800D01*
X178947155Y-120434346D01*
X178947158Y-120434346D01*
X179162688Y-120364316D01*
X179364620Y-120261426D01*
X179436006Y-120209559D01*
X178745942Y-119519495D01*
X178806081Y-119503381D01*
X178921920Y-119436502D01*
X179016502Y-119341920D01*
X179083381Y-119226081D01*
X179099495Y-119165942D01*
X179789559Y-119856006D01*
X179841426Y-119784620D01*
X179944316Y-119582688D01*
X180014346Y-119367158D01*
X180014346Y-119367155D01*
X180049800Y-119143314D01*
X180049800Y-118916685D01*
X180014346Y-118692844D01*
X180014346Y-118692841D01*
X179944316Y-118477311D01*
X179841426Y-118275379D01*
X179789559Y-118203992D01*
X179789559Y-118203991D01*
X179099494Y-118894056D01*
X179083381Y-118833919D01*
X179016502Y-118718080D01*
X178921920Y-118623498D01*
X178806081Y-118556619D01*
X178745940Y-118540504D01*
X179436007Y-117850439D01*
X179364620Y-117798573D01*
X179175902Y-117702416D01*
X179125106Y-117654441D01*
X179108311Y-117586620D01*
X179130849Y-117520485D01*
X179175901Y-117481446D01*
X179207647Y-117465272D01*
X179352856Y-117359772D01*
X179479772Y-117232856D01*
X179585272Y-117087647D01*
X179666757Y-116927723D01*
X179722222Y-116757021D01*
X179750300Y-116579744D01*
X179750300Y-116400256D01*
X179722222Y-116222979D01*
X179666757Y-116052277D01*
X179585272Y-115892353D01*
X179585270Y-115892350D01*
X179585269Y-115892348D01*
X179479777Y-115747150D01*
X179479773Y-115747145D01*
X179352854Y-115620226D01*
X179352849Y-115620222D01*
X179207651Y-115514730D01*
X179047725Y-115433244D01*
X179047724Y-115433243D01*
X179047723Y-115433243D01*
X178877021Y-115377778D01*
X178877019Y-115377777D01*
X178877018Y-115377777D01*
X178740838Y-115356208D01*
X178699744Y-115349700D01*
X178520256Y-115349700D01*
X178479161Y-115356208D01*
X178342982Y-115377777D01*
X178172274Y-115433244D01*
X178012348Y-115514730D01*
X177867150Y-115620222D01*
X177867145Y-115620226D01*
X177740226Y-115747145D01*
X177740222Y-115747150D01*
X177634730Y-115892348D01*
X177553244Y-116052272D01*
X177536496Y-116103819D01*
X177497058Y-116161494D01*
X177432699Y-116188692D01*
X177418565Y-116189500D01*
X156941435Y-116189500D01*
X156874396Y-116169815D01*
X156828641Y-116117011D01*
X156823504Y-116103819D01*
X156806755Y-116052272D01*
X156725269Y-115892348D01*
X156619777Y-115747150D01*
X156619773Y-115747145D01*
X156492854Y-115620226D01*
X156492849Y-115620222D01*
X156347651Y-115514730D01*
X156187725Y-115433244D01*
X156187724Y-115433243D01*
X156187723Y-115433243D01*
X156017021Y-115377778D01*
X156017019Y-115377777D01*
X156017018Y-115377777D01*
X155880838Y-115356208D01*
X155839744Y-115349700D01*
X155660256Y-115349700D01*
X155619161Y-115356208D01*
X155482982Y-115377777D01*
X155312274Y-115433244D01*
X155152348Y-115514730D01*
X155007150Y-115620222D01*
X155007145Y-115620226D01*
X154880226Y-115747145D01*
X154880222Y-115747150D01*
X154774730Y-115892348D01*
X154693244Y-116052274D01*
X154637777Y-116222982D01*
X154609700Y-116400256D01*
X154609700Y-116579744D01*
X154637778Y-116757021D01*
X154672209Y-116862989D01*
X154693244Y-116927725D01*
X154774730Y-117087651D01*
X154880222Y-117232849D01*
X154880226Y-117232854D01*
X155007145Y-117359773D01*
X155007150Y-117359777D01*
X155152351Y-117465271D01*
X155184096Y-117481446D01*
X155234893Y-117529420D01*
X155251688Y-117597241D01*
X155229151Y-117663376D01*
X155184097Y-117702416D01*
X154995376Y-117798575D01*
X154923992Y-117850438D01*
X154923991Y-117850439D01*
X155614057Y-118540504D01*
X155553919Y-118556619D01*
X155438080Y-118623498D01*
X155343498Y-118718080D01*
X155276619Y-118833919D01*
X155260504Y-118894057D01*
X154570439Y-118203991D01*
X154570438Y-118203992D01*
X154518575Y-118275376D01*
X154415683Y-118477311D01*
X154345653Y-118692841D01*
X154345653Y-118692844D01*
X154310200Y-118916685D01*
X153500500Y-118916685D01*
X153500500Y-111296685D01*
X154310200Y-111296685D01*
X154310200Y-111523314D01*
X154345653Y-111747155D01*
X154345653Y-111747158D01*
X154415683Y-111962688D01*
X154518573Y-112164620D01*
X154570439Y-112236006D01*
X154570439Y-112236007D01*
X155260504Y-111545941D01*
X155276619Y-111606081D01*
X155343498Y-111721920D01*
X155438080Y-111816502D01*
X155553919Y-111883381D01*
X155614057Y-111899494D01*
X154923991Y-112589559D01*
X154995379Y-112641426D01*
X155184097Y-112737583D01*
X155234893Y-112785558D01*
X155251688Y-112853379D01*
X155229151Y-112919513D01*
X155184099Y-112958552D01*
X155152349Y-112974729D01*
X155007150Y-113080222D01*
X155007145Y-113080226D01*
X154880226Y-113207145D01*
X154880222Y-113207150D01*
X154774730Y-113352348D01*
X154693244Y-113512274D01*
X154637777Y-113682982D01*
X154609700Y-113860256D01*
X154609700Y-114039744D01*
X154637778Y-114217021D01*
X154672209Y-114322989D01*
X154693244Y-114387725D01*
X154774730Y-114547651D01*
X154880222Y-114692849D01*
X154880226Y-114692854D01*
X155007145Y-114819773D01*
X155007150Y-114819777D01*
X155152348Y-114925269D01*
X155152350Y-114925270D01*
X155152353Y-114925272D01*
X155312277Y-115006757D01*
X155482979Y-115062222D01*
X155660256Y-115090300D01*
X155660257Y-115090300D01*
X155839743Y-115090300D01*
X155839744Y-115090300D01*
X156017021Y-115062222D01*
X156187723Y-115006757D01*
X156347647Y-114925272D01*
X156492856Y-114819772D01*
X156619772Y-114692856D01*
X156725272Y-114547647D01*
X156806757Y-114387723D01*
X156823504Y-114336180D01*
X156862942Y-114278506D01*
X156927301Y-114251308D01*
X156941435Y-114250500D01*
X177418565Y-114250500D01*
X177485604Y-114270185D01*
X177531359Y-114322989D01*
X177536496Y-114336181D01*
X177553244Y-114387727D01*
X177634730Y-114547651D01*
X177740222Y-114692849D01*
X177740226Y-114692854D01*
X177867145Y-114819773D01*
X177867150Y-114819777D01*
X178012348Y-114925269D01*
X178012350Y-114925270D01*
X178012353Y-114925272D01*
X178172277Y-115006757D01*
X178342979Y-115062222D01*
X178520256Y-115090300D01*
X178520257Y-115090300D01*
X178699743Y-115090300D01*
X178699744Y-115090300D01*
X178877021Y-115062222D01*
X179047723Y-115006757D01*
X179207647Y-114925272D01*
X179352856Y-114819772D01*
X179479772Y-114692856D01*
X179585272Y-114547647D01*
X179666757Y-114387723D01*
X179722222Y-114217021D01*
X179750300Y-114039744D01*
X179750300Y-113860256D01*
X179722222Y-113682979D01*
X179666757Y-113512277D01*
X179585272Y-113352353D01*
X179585270Y-113352350D01*
X179585269Y-113352348D01*
X179479777Y-113207150D01*
X179479773Y-113207145D01*
X179352854Y-113080226D01*
X179352849Y-113080222D01*
X179207646Y-112974727D01*
X179207645Y-112974726D01*
X179175902Y-112958552D01*
X179125106Y-112910578D01*
X179108311Y-112842757D01*
X179130849Y-112776622D01*
X179175902Y-112737583D01*
X179364620Y-112641426D01*
X179436006Y-112589559D01*
X178745942Y-111899495D01*
X178806081Y-111883381D01*
X178921920Y-111816502D01*
X179016502Y-111721920D01*
X179083381Y-111606081D01*
X179099495Y-111545942D01*
X179789559Y-112236006D01*
X179841426Y-112164620D01*
X179944316Y-111962688D01*
X180014346Y-111747158D01*
X180014346Y-111747155D01*
X180049800Y-111523314D01*
X180049800Y-111296685D01*
X180014346Y-111072844D01*
X180014346Y-111072841D01*
X179944316Y-110857311D01*
X179841426Y-110655379D01*
X179789559Y-110583992D01*
X179789559Y-110583991D01*
X179099494Y-111274056D01*
X179083381Y-111213919D01*
X179016502Y-111098080D01*
X178921920Y-111003498D01*
X178806081Y-110936619D01*
X178745940Y-110920504D01*
X179436007Y-110230439D01*
X179364620Y-110178573D01*
X179175902Y-110082416D01*
X179125106Y-110034441D01*
X179108311Y-109966620D01*
X179130849Y-109900485D01*
X179175901Y-109861446D01*
X179207647Y-109845272D01*
X179352856Y-109739772D01*
X179479772Y-109612856D01*
X179585272Y-109467647D01*
X179666757Y-109307723D01*
X179722222Y-109137021D01*
X179750300Y-108959744D01*
X179750300Y-108780256D01*
X179722222Y-108602979D01*
X179666757Y-108432277D01*
X179666754Y-108432271D01*
X179642153Y-108383987D01*
X179629257Y-108315318D01*
X179655534Y-108250578D01*
X179664948Y-108240021D01*
X185240460Y-102664511D01*
X185280022Y-102595988D01*
X185300500Y-102519562D01*
X185300500Y-102440438D01*
X185300500Y-96425833D01*
X185320185Y-96358794D01*
X185336819Y-96338152D01*
X187913152Y-93761819D01*
X187974475Y-93728334D01*
X188000833Y-93725500D01*
X189000728Y-93725500D01*
X189067767Y-93745185D01*
X189111212Y-93793204D01*
X189146949Y-93863340D01*
X189146954Y-93863347D01*
X189236652Y-93953045D01*
X189236654Y-93953046D01*
X189236658Y-93953050D01*
X189349694Y-94010645D01*
X189349698Y-94010647D01*
X189443475Y-94025499D01*
X189443481Y-94025500D01*
X190056518Y-94025499D01*
X190150304Y-94010646D01*
X190263342Y-93953050D01*
X190353050Y-93863342D01*
X190410646Y-93750304D01*
X190410646Y-93750302D01*
X190410647Y-93750301D01*
X190425499Y-93656524D01*
X190425500Y-93656519D01*
X190425499Y-93193482D01*
X190410646Y-93099696D01*
X190353050Y-92986658D01*
X190353046Y-92986654D01*
X190353045Y-92986652D01*
X190263347Y-92896954D01*
X190263344Y-92896952D01*
X190263342Y-92896950D01*
X190186517Y-92857805D01*
X190150301Y-92839352D01*
X190141020Y-92836337D01*
X190141836Y-92833825D01*
X190091963Y-92810180D01*
X190055034Y-92750866D01*
X190050500Y-92717640D01*
X190050500Y-92346830D01*
X190070185Y-92279791D01*
X190086814Y-92259154D01*
X191374072Y-90971895D01*
X191435393Y-90938412D01*
X191505085Y-90943396D01*
X191561018Y-90985268D01*
X191569138Y-90997578D01*
X191609264Y-91067078D01*
X191702450Y-91160264D01*
X191801285Y-91217327D01*
X191816574Y-91226154D01*
X191816578Y-91226156D01*
X191943872Y-91260264D01*
X191943874Y-91260264D01*
X192075654Y-91260264D01*
X192075656Y-91260264D01*
X192202950Y-91226156D01*
X192288899Y-91176532D01*
X192356799Y-91160059D01*
X192422826Y-91182911D01*
X192466017Y-91237832D01*
X192474900Y-91283919D01*
X192474900Y-91472150D01*
X192486531Y-91530627D01*
X192486532Y-91530628D01*
X192530847Y-91596950D01*
X192597169Y-91641265D01*
X192597170Y-91641266D01*
X192655647Y-91652897D01*
X192655650Y-91652898D01*
X192655652Y-91652898D01*
X193863550Y-91652898D01*
X193863551Y-91652897D01*
X193883218Y-91648985D01*
X193922028Y-91641266D01*
X193922028Y-91641265D01*
X193922031Y-91641265D01*
X193961657Y-91614787D01*
X193998446Y-91598117D01*
X194065991Y-91580019D01*
X194134513Y-91540458D01*
X194190462Y-91484509D01*
X194376386Y-91298583D01*
X194437709Y-91265099D01*
X194464067Y-91262265D01*
X194554125Y-91262265D01*
X194554127Y-91262265D01*
X194681421Y-91228157D01*
X194795549Y-91162265D01*
X194888735Y-91069079D01*
X194928860Y-90999579D01*
X194979427Y-90951365D01*
X195048034Y-90938141D01*
X195112898Y-90964109D01*
X195123928Y-90973899D01*
X197288181Y-93138152D01*
X197321666Y-93199475D01*
X197324500Y-93225833D01*
X197324500Y-93624165D01*
X197304815Y-93691204D01*
X197288181Y-93711846D01*
X196261848Y-94738181D01*
X196200525Y-94771666D01*
X196174167Y-94774500D01*
X190499272Y-94774500D01*
X190432233Y-94754815D01*
X190388788Y-94706796D01*
X190367607Y-94665229D01*
X190353050Y-94636658D01*
X190353047Y-94636655D01*
X190353045Y-94636652D01*
X190263347Y-94546954D01*
X190263344Y-94546952D01*
X190263342Y-94546950D01*
X190186517Y-94507805D01*
X190150301Y-94489352D01*
X190056524Y-94474500D01*
X189443482Y-94474500D01*
X189362519Y-94487323D01*
X189349696Y-94489354D01*
X189236658Y-94546950D01*
X189236657Y-94546951D01*
X189236652Y-94546954D01*
X189146954Y-94636652D01*
X189146951Y-94636657D01*
X189146950Y-94636658D01*
X189127751Y-94674337D01*
X189089352Y-94749698D01*
X189074275Y-94844898D01*
X189044346Y-94908032D01*
X188985035Y-94944964D01*
X188951802Y-94949500D01*
X188533676Y-94949500D01*
X188466637Y-94929815D01*
X188445995Y-94913181D01*
X188382316Y-94849502D01*
X188382314Y-94849500D01*
X188325250Y-94816554D01*
X188268187Y-94783608D01*
X188204539Y-94766554D01*
X188140892Y-94749500D01*
X188009108Y-94749500D01*
X187881812Y-94783608D01*
X187767686Y-94849500D01*
X187767683Y-94849502D01*
X187674502Y-94942683D01*
X187674500Y-94942686D01*
X187608608Y-95056812D01*
X187574500Y-95184108D01*
X187574500Y-95315892D01*
X187590472Y-95375500D01*
X187608608Y-95443187D01*
X187641554Y-95500250D01*
X187674500Y-95557314D01*
X187767686Y-95650500D01*
X187881814Y-95716392D01*
X188009108Y-95750500D01*
X188009110Y-95750500D01*
X188140890Y-95750500D01*
X188140892Y-95750500D01*
X188268186Y-95716392D01*
X188382314Y-95650500D01*
X188445995Y-95586819D01*
X188507318Y-95553334D01*
X188533676Y-95550500D01*
X189132745Y-95550500D01*
X189199784Y-95570185D01*
X189220426Y-95586819D01*
X189236652Y-95603045D01*
X189236654Y-95603046D01*
X189236658Y-95603050D01*
X189349694Y-95660645D01*
X189349698Y-95660647D01*
X189443475Y-95675499D01*
X189443481Y-95675500D01*
X190056518Y-95675499D01*
X190150304Y-95660646D01*
X190263342Y-95603050D01*
X190353050Y-95513342D01*
X190388787Y-95443203D01*
X190436761Y-95392409D01*
X190499271Y-95375500D01*
X196389560Y-95375500D01*
X196389562Y-95375500D01*
X196465989Y-95355021D01*
X196506587Y-95331582D01*
X197025001Y-95331582D01*
X197031408Y-95402102D01*
X197031409Y-95402107D01*
X197081981Y-95564396D01*
X197169927Y-95709877D01*
X197290122Y-95830072D01*
X197435604Y-95918019D01*
X197435603Y-95918019D01*
X197597894Y-95968590D01*
X197597892Y-95968590D01*
X197668418Y-95974999D01*
X198250000Y-95974999D01*
X198331581Y-95974999D01*
X198402102Y-95968591D01*
X198402107Y-95968590D01*
X198564396Y-95918018D01*
X198709877Y-95830072D01*
X198830072Y-95709877D01*
X198918019Y-95564395D01*
X198968590Y-95402106D01*
X198975000Y-95331572D01*
X198975000Y-95325000D01*
X198250000Y-95325000D01*
X198250000Y-95974999D01*
X197668418Y-95974999D01*
X197749999Y-95974998D01*
X197750000Y-95974998D01*
X197750000Y-95325000D01*
X197025001Y-95325000D01*
X197025001Y-95331582D01*
X196506587Y-95331582D01*
X196534511Y-95315460D01*
X196590460Y-95259511D01*
X196988652Y-94861318D01*
X197049974Y-94827834D01*
X197076332Y-94825000D01*
X198974999Y-94825000D01*
X198974999Y-94818417D01*
X198968591Y-94747897D01*
X198968590Y-94747892D01*
X198918018Y-94585603D01*
X198830072Y-94440122D01*
X198709877Y-94319927D01*
X198564395Y-94231980D01*
X198564396Y-94231980D01*
X198483791Y-94206863D01*
X198425643Y-94168126D01*
X198397669Y-94104100D01*
X198408751Y-94035115D01*
X198455369Y-93983072D01*
X198464369Y-93978002D01*
X198513342Y-93953050D01*
X198603050Y-93863342D01*
X198638787Y-93793203D01*
X198686761Y-93742409D01*
X198749271Y-93725500D01*
X200864560Y-93725500D01*
X200864562Y-93725500D01*
X200940989Y-93705021D01*
X201009511Y-93665460D01*
X201065460Y-93609511D01*
X201990460Y-92684511D01*
X202030022Y-92615988D01*
X202050500Y-92539562D01*
X202050500Y-92460438D01*
X202050500Y-89710438D01*
X202030021Y-89634011D01*
X201999202Y-89580630D01*
X201990464Y-89565495D01*
X201990458Y-89565487D01*
X200884512Y-88459541D01*
X200884504Y-88459535D01*
X200815995Y-88419982D01*
X200815990Y-88419979D01*
X200781162Y-88410647D01*
X200739562Y-88399500D01*
X200739560Y-88399500D01*
X199900517Y-88399500D01*
X199833478Y-88379815D01*
X199787723Y-88327011D01*
X199777779Y-88257853D01*
X199778900Y-88251309D01*
X199784699Y-88222151D01*
X199784700Y-88222149D01*
X199784700Y-87877849D01*
X199778900Y-87848693D01*
X199785127Y-87779101D01*
X199827989Y-87723923D01*
X199893879Y-87700678D01*
X199900517Y-87700500D01*
X199969560Y-87700500D01*
X199969562Y-87700500D01*
X200045989Y-87680021D01*
X200114511Y-87640460D01*
X200170460Y-87584511D01*
X203838152Y-83916819D01*
X203899475Y-83883334D01*
X203925833Y-83880500D01*
X204458684Y-83880500D01*
X204525723Y-83900185D01*
X204571478Y-83952989D01*
X204573245Y-83957048D01*
X204613364Y-84053907D01*
X204613371Y-84053920D01*
X204722860Y-84217781D01*
X204722863Y-84217785D01*
X204862214Y-84357136D01*
X204862218Y-84357139D01*
X205026079Y-84466628D01*
X205026092Y-84466635D01*
X205208160Y-84542049D01*
X205208165Y-84542051D01*
X205208169Y-84542051D01*
X205208170Y-84542052D01*
X205401456Y-84580500D01*
X205401459Y-84580500D01*
X205598543Y-84580500D01*
X205728582Y-84554632D01*
X205791835Y-84542051D01*
X205932655Y-84483721D01*
X205973907Y-84466635D01*
X205973907Y-84466634D01*
X205973914Y-84466632D01*
X206137782Y-84357139D01*
X206277139Y-84217782D01*
X206386632Y-84053914D01*
X206462051Y-83871835D01*
X206474632Y-83808582D01*
X206500500Y-83678543D01*
X206500500Y-83481456D01*
X206462052Y-83288170D01*
X206462051Y-83288169D01*
X206462051Y-83288165D01*
X206421925Y-83191294D01*
X206414457Y-83121828D01*
X206445732Y-83059349D01*
X206448776Y-83056193D01*
X207240460Y-82264511D01*
X207280021Y-82195989D01*
X207300500Y-82119562D01*
X207300500Y-67649586D01*
X207320185Y-67582547D01*
X207372989Y-67536792D01*
X207386171Y-67531658D01*
X207422445Y-67519873D01*
X207576788Y-67441232D01*
X207716928Y-67339414D01*
X207839414Y-67216928D01*
X207941232Y-67076788D01*
X208019873Y-66922445D01*
X208073402Y-66757701D01*
X208100500Y-66586611D01*
X208100500Y-66413389D01*
X208073402Y-66242299D01*
X208019873Y-66077555D01*
X207941232Y-65923212D01*
X207839414Y-65783072D01*
X207716928Y-65660586D01*
X207576788Y-65558768D01*
X207422445Y-65480127D01*
X207257701Y-65426598D01*
X207257699Y-65426597D01*
X207257698Y-65426597D01*
X207126271Y-65405781D01*
X207086611Y-65399500D01*
X206913389Y-65399500D01*
X206873728Y-65405781D01*
X206742302Y-65426597D01*
X206577552Y-65480128D01*
X206423211Y-65558768D01*
X206343256Y-65616859D01*
X206283072Y-65660586D01*
X206283070Y-65660588D01*
X206283069Y-65660588D01*
X206160588Y-65783069D01*
X206160588Y-65783070D01*
X206160586Y-65783072D01*
X206116859Y-65843256D01*
X206058768Y-65923211D01*
X205980128Y-66077552D01*
X205926597Y-66242302D01*
X205899500Y-66413389D01*
X205899500Y-66586611D01*
X205926598Y-66757701D01*
X205980127Y-66922445D01*
X206058768Y-67076788D01*
X206160586Y-67216928D01*
X206283072Y-67339414D01*
X206388177Y-67415777D01*
X206423213Y-67441233D01*
X206495823Y-67478229D01*
X206577555Y-67519873D01*
X206613818Y-67531655D01*
X206671492Y-67571091D01*
X206698691Y-67635449D01*
X206699500Y-67649586D01*
X206699500Y-73078027D01*
X206679815Y-73145066D01*
X206627011Y-73190821D01*
X206557853Y-73200765D01*
X206494297Y-73171740D01*
X206460939Y-73125479D01*
X206386635Y-72946092D01*
X206386628Y-72946079D01*
X206277139Y-72782218D01*
X206277136Y-72782214D01*
X206137785Y-72642863D01*
X206137781Y-72642860D01*
X205973920Y-72533371D01*
X205973910Y-72533366D01*
X205877047Y-72493244D01*
X205822644Y-72449403D01*
X205800579Y-72383109D01*
X205800500Y-72378683D01*
X205800500Y-68460439D01*
X205791227Y-68425833D01*
X205780021Y-68384011D01*
X205774513Y-68374471D01*
X205740464Y-68315495D01*
X205740458Y-68315487D01*
X204636819Y-67211848D01*
X204603334Y-67150525D01*
X204600500Y-67124167D01*
X204600500Y-65580249D01*
X204600499Y-65580247D01*
X204588868Y-65521770D01*
X204588867Y-65521769D01*
X204544552Y-65455447D01*
X204478230Y-65411132D01*
X204478229Y-65411131D01*
X204419752Y-65399500D01*
X204419748Y-65399500D01*
X202580252Y-65399500D01*
X202580247Y-65399500D01*
X202521770Y-65411131D01*
X202521769Y-65411132D01*
X202455447Y-65455447D01*
X202411132Y-65521769D01*
X202411131Y-65521770D01*
X202399500Y-65580247D01*
X202399500Y-67419752D01*
X202411131Y-67478229D01*
X202411132Y-67478230D01*
X202455447Y-67544552D01*
X202521769Y-67588867D01*
X202521770Y-67588868D01*
X202580247Y-67600499D01*
X202580250Y-67600500D01*
X202580252Y-67600500D01*
X204124167Y-67600500D01*
X204191206Y-67620185D01*
X204211848Y-67636819D01*
X205163181Y-68588152D01*
X205196666Y-68649475D01*
X205199500Y-68675833D01*
X205199500Y-72378683D01*
X205179815Y-72445722D01*
X205127011Y-72491477D01*
X205122953Y-72493244D01*
X205026089Y-72533366D01*
X205026079Y-72533371D01*
X204862218Y-72642860D01*
X204862214Y-72642863D01*
X204722863Y-72782214D01*
X204722860Y-72782218D01*
X204613371Y-72946079D01*
X204613364Y-72946092D01*
X204537950Y-73128160D01*
X204537947Y-73128170D01*
X204499500Y-73321456D01*
X204499500Y-73321459D01*
X204499500Y-73518541D01*
X204499500Y-73518543D01*
X204499499Y-73518543D01*
X204537947Y-73711829D01*
X204537950Y-73711839D01*
X204613364Y-73893907D01*
X204613371Y-73893920D01*
X204722860Y-74057781D01*
X204722863Y-74057785D01*
X204862214Y-74197136D01*
X204862218Y-74197139D01*
X205026079Y-74306628D01*
X205026092Y-74306635D01*
X205208160Y-74382049D01*
X205208165Y-74382051D01*
X205208169Y-74382051D01*
X205208170Y-74382052D01*
X205401456Y-74420500D01*
X205401459Y-74420500D01*
X205598543Y-74420500D01*
X205728582Y-74394632D01*
X205791835Y-74382051D01*
X205932655Y-74323721D01*
X205973907Y-74306635D01*
X205973907Y-74306634D01*
X205973914Y-74306632D01*
X206137782Y-74197139D01*
X206277139Y-74057782D01*
X206386632Y-73893914D01*
X206460939Y-73714520D01*
X206504780Y-73660116D01*
X206571074Y-73638051D01*
X206638773Y-73655330D01*
X206686384Y-73706467D01*
X206699500Y-73761972D01*
X206699500Y-81904166D01*
X206679815Y-81971205D01*
X206663181Y-81991847D01*
X206023835Y-82631192D01*
X205962512Y-82664677D01*
X205892820Y-82659693D01*
X205888702Y-82658072D01*
X205791839Y-82617950D01*
X205791829Y-82617947D01*
X205598543Y-82579500D01*
X205598541Y-82579500D01*
X205401459Y-82579500D01*
X205401457Y-82579500D01*
X205208170Y-82617947D01*
X205208160Y-82617950D01*
X205026092Y-82693364D01*
X205026079Y-82693371D01*
X204862218Y-82802860D01*
X204862214Y-82802863D01*
X204722863Y-82942214D01*
X204722860Y-82942218D01*
X204613371Y-83106079D01*
X204613364Y-83106092D01*
X204573245Y-83202952D01*
X204529405Y-83257356D01*
X204463111Y-83279421D01*
X204458684Y-83279500D01*
X203710438Y-83279500D01*
X203678082Y-83288170D01*
X203634009Y-83299979D01*
X203634004Y-83299982D01*
X203565495Y-83339535D01*
X203565487Y-83339541D01*
X199844608Y-87060420D01*
X199783285Y-87093905D01*
X199713593Y-87088921D01*
X199688037Y-87075842D01*
X199670754Y-87064294D01*
X199662431Y-87058733D01*
X199662430Y-87058732D01*
X199662429Y-87058732D01*
X199662429Y-87058731D01*
X199603952Y-87047100D01*
X199603948Y-87047100D01*
X198396052Y-87047100D01*
X198396047Y-87047100D01*
X198337570Y-87058731D01*
X198337569Y-87058732D01*
X198271247Y-87103047D01*
X198226932Y-87169369D01*
X198226931Y-87169370D01*
X198215300Y-87227847D01*
X198215300Y-87575500D01*
X198195615Y-87642539D01*
X198142811Y-87688294D01*
X198091300Y-87699500D01*
X197210438Y-87699500D01*
X197134011Y-87719979D01*
X197111649Y-87732889D01*
X197049653Y-87749500D01*
X196934108Y-87749500D01*
X196806812Y-87783608D01*
X196692686Y-87849500D01*
X196692683Y-87849502D01*
X196599502Y-87942683D01*
X196599500Y-87942686D01*
X196533608Y-88056812D01*
X196518747Y-88112277D01*
X196499500Y-88184108D01*
X196499500Y-88315892D01*
X196504016Y-88332746D01*
X196533608Y-88443187D01*
X196548725Y-88469370D01*
X196599500Y-88557314D01*
X196692686Y-88650500D01*
X196806814Y-88716392D01*
X196934108Y-88750500D01*
X196934110Y-88750500D01*
X197065890Y-88750500D01*
X197065892Y-88750500D01*
X197193186Y-88716392D01*
X197307314Y-88650500D01*
X197400500Y-88557314D01*
X197466392Y-88443186D01*
X197479998Y-88392405D01*
X197516363Y-88332746D01*
X197579210Y-88302217D01*
X197599773Y-88300500D01*
X198111301Y-88300500D01*
X198178340Y-88320185D01*
X198224095Y-88372989D01*
X198234860Y-88434948D01*
X198232676Y-88460773D01*
X198226933Y-88469369D01*
X198215300Y-88527852D01*
X198215300Y-88666274D01*
X198214859Y-88671490D01*
X198204041Y-88699382D01*
X198195615Y-88728081D01*
X198190982Y-88733056D01*
X198189596Y-88736632D01*
X198183559Y-88741029D01*
X198165612Y-88760308D01*
X198058609Y-88840411D01*
X197972449Y-88955505D01*
X197972445Y-88955512D01*
X197922203Y-89090219D01*
X197922201Y-89090226D01*
X197915800Y-89149754D01*
X197915800Y-89197599D01*
X200084200Y-89197599D01*
X200084200Y-89149771D01*
X200084199Y-89149754D01*
X200082909Y-89137756D01*
X200095314Y-89068997D01*
X200142924Y-89017859D01*
X200206198Y-89000500D01*
X200524167Y-89000500D01*
X200591206Y-89020185D01*
X200611848Y-89036819D01*
X201413181Y-89838152D01*
X201446666Y-89899475D01*
X201449500Y-89925833D01*
X201449500Y-92324167D01*
X201429815Y-92391206D01*
X201413181Y-92411848D01*
X200736848Y-93088181D01*
X200675525Y-93121666D01*
X200649167Y-93124500D01*
X198749272Y-93124500D01*
X198682233Y-93104815D01*
X198638788Y-93056796D01*
X198617607Y-93015229D01*
X198603050Y-92986658D01*
X198603047Y-92986655D01*
X198603045Y-92986652D01*
X198513347Y-92896954D01*
X198513344Y-92896952D01*
X198513342Y-92896950D01*
X198436517Y-92857805D01*
X198400301Y-92839352D01*
X198306524Y-92824500D01*
X198306519Y-92824500D01*
X197875833Y-92824500D01*
X197808794Y-92804815D01*
X197788152Y-92788181D01*
X194911817Y-89911846D01*
X194878332Y-89850523D01*
X194875498Y-89824165D01*
X194875498Y-89550243D01*
X197915800Y-89550243D01*
X197922201Y-89609771D01*
X197922203Y-89609778D01*
X197972445Y-89744485D01*
X197972449Y-89744492D01*
X198058609Y-89859586D01*
X198058612Y-89859589D01*
X198165611Y-89939689D01*
X198207482Y-89995622D01*
X198215300Y-90038955D01*
X198215300Y-90172152D01*
X198226931Y-90230629D01*
X198226932Y-90230630D01*
X198243956Y-90256108D01*
X198264834Y-90322785D01*
X198246350Y-90390166D01*
X198243957Y-90393889D01*
X198226932Y-90419368D01*
X198226931Y-90419369D01*
X198215300Y-90477846D01*
X198215300Y-90822151D01*
X198226931Y-90880627D01*
X198226932Y-90880629D01*
X198226933Y-90880630D01*
X198243957Y-90906108D01*
X198264835Y-90972785D01*
X198246351Y-91040165D01*
X198243958Y-91043889D01*
X198226932Y-91069370D01*
X198226931Y-91069370D01*
X198215300Y-91127847D01*
X198215300Y-91472152D01*
X198226931Y-91530629D01*
X198226932Y-91530630D01*
X198271247Y-91596952D01*
X198337569Y-91641267D01*
X198337570Y-91641268D01*
X198396047Y-91652899D01*
X198396050Y-91652900D01*
X198396052Y-91652900D01*
X199603950Y-91652900D01*
X199603951Y-91652899D01*
X199618768Y-91649952D01*
X199662429Y-91641268D01*
X199662429Y-91641267D01*
X199662431Y-91641267D01*
X199728752Y-91596952D01*
X199773067Y-91530631D01*
X199773067Y-91530629D01*
X199773068Y-91530629D01*
X199784699Y-91472152D01*
X199784700Y-91472150D01*
X199784700Y-91127849D01*
X199784699Y-91127847D01*
X199773068Y-91069370D01*
X199773067Y-91069368D01*
X199756043Y-91043891D01*
X199735164Y-90977214D01*
X199753648Y-90909834D01*
X199756022Y-90906138D01*
X199773067Y-90880630D01*
X199773067Y-90880629D01*
X199773068Y-90880628D01*
X199784534Y-90822982D01*
X199784700Y-90822147D01*
X199784700Y-90477851D01*
X199784700Y-90477848D01*
X199784699Y-90477846D01*
X199773068Y-90419370D01*
X199773067Y-90419368D01*
X199756042Y-90393889D01*
X199735165Y-90327213D01*
X199753649Y-90259833D01*
X199756022Y-90256140D01*
X199773067Y-90230631D01*
X199775137Y-90220228D01*
X199784699Y-90172152D01*
X199784700Y-90172150D01*
X199784700Y-90038955D01*
X199804385Y-89971916D01*
X199834389Y-89939689D01*
X199941387Y-89859589D01*
X199941390Y-89859586D01*
X200027550Y-89744492D01*
X200027554Y-89744485D01*
X200077796Y-89609778D01*
X200077798Y-89609771D01*
X200084199Y-89550243D01*
X200084200Y-89550226D01*
X200084200Y-89502399D01*
X197915800Y-89502399D01*
X197915800Y-89550243D01*
X194875498Y-89550243D01*
X194875498Y-89374500D01*
X194895183Y-89307461D01*
X194947987Y-89261706D01*
X194999498Y-89250500D01*
X195065890Y-89250500D01*
X195065892Y-89250500D01*
X195193186Y-89216392D01*
X195307314Y-89150500D01*
X195400500Y-89057314D01*
X195466392Y-88943186D01*
X195500500Y-88815892D01*
X195500500Y-88684108D01*
X195466392Y-88556814D01*
X195400500Y-88442686D01*
X195307314Y-88349500D01*
X195307312Y-88349499D01*
X195307310Y-88349497D01*
X195261500Y-88323049D01*
X195213284Y-88272482D01*
X195199500Y-88215662D01*
X195199500Y-84704500D01*
X195219185Y-84637461D01*
X195271989Y-84591706D01*
X195323500Y-84580500D01*
X195348543Y-84580500D01*
X195478582Y-84554632D01*
X195541835Y-84542051D01*
X195682655Y-84483721D01*
X195723907Y-84466635D01*
X195723907Y-84466634D01*
X195723914Y-84466632D01*
X195887782Y-84357139D01*
X196027139Y-84217782D01*
X196136632Y-84053914D01*
X196212051Y-83871835D01*
X196224632Y-83808582D01*
X196250500Y-83678543D01*
X196250500Y-83481456D01*
X196212052Y-83288170D01*
X196212051Y-83288169D01*
X196212051Y-83288165D01*
X196171925Y-83191294D01*
X196164457Y-83121828D01*
X196195732Y-83059349D01*
X196198777Y-83056192D01*
X197240460Y-82014511D01*
X197280022Y-81945988D01*
X197300500Y-81869562D01*
X197300500Y-81790438D01*
X197300500Y-67649586D01*
X197320185Y-67582547D01*
X197372989Y-67536792D01*
X197386171Y-67531658D01*
X197422445Y-67519873D01*
X197576788Y-67441232D01*
X197716928Y-67339414D01*
X197839414Y-67216928D01*
X197941232Y-67076788D01*
X198019873Y-66922445D01*
X198073402Y-66757701D01*
X198100500Y-66586611D01*
X198100500Y-66413389D01*
X198073402Y-66242299D01*
X198019873Y-66077555D01*
X197941232Y-65923212D01*
X197839414Y-65783072D01*
X197716928Y-65660586D01*
X197576788Y-65558768D01*
X197422445Y-65480127D01*
X197257701Y-65426598D01*
X197257699Y-65426597D01*
X197257698Y-65426597D01*
X197126271Y-65405781D01*
X197086611Y-65399500D01*
X196913389Y-65399500D01*
X196873728Y-65405781D01*
X196742302Y-65426597D01*
X196577552Y-65480128D01*
X196423211Y-65558768D01*
X196343256Y-65616859D01*
X196283072Y-65660586D01*
X196283070Y-65660588D01*
X196283069Y-65660588D01*
X196160588Y-65783069D01*
X196160588Y-65783070D01*
X196160586Y-65783072D01*
X196116859Y-65843256D01*
X196058768Y-65923211D01*
X195980128Y-66077552D01*
X195926597Y-66242302D01*
X195899500Y-66413389D01*
X195899500Y-66586611D01*
X195926598Y-66757701D01*
X195980127Y-66922445D01*
X196058768Y-67076788D01*
X196160586Y-67216928D01*
X196283072Y-67339414D01*
X196388177Y-67415777D01*
X196423213Y-67441233D01*
X196495823Y-67478229D01*
X196577555Y-67519873D01*
X196613818Y-67531655D01*
X196671492Y-67571091D01*
X196698691Y-67635449D01*
X196699500Y-67649586D01*
X196699500Y-81654166D01*
X196679815Y-81721205D01*
X196663181Y-81741847D01*
X195773835Y-82631192D01*
X195712512Y-82664677D01*
X195642820Y-82659693D01*
X195638702Y-82658072D01*
X195541839Y-82617950D01*
X195541829Y-82617947D01*
X195348543Y-82579500D01*
X195348541Y-82579500D01*
X195151459Y-82579500D01*
X195151457Y-82579500D01*
X194958170Y-82617947D01*
X194958160Y-82617950D01*
X194776092Y-82693364D01*
X194776079Y-82693371D01*
X194612218Y-82802860D01*
X194612214Y-82802863D01*
X194472863Y-82942214D01*
X194472860Y-82942218D01*
X194363371Y-83106079D01*
X194363364Y-83106092D01*
X194287950Y-83288160D01*
X194287947Y-83288170D01*
X194249500Y-83481456D01*
X194249500Y-83481459D01*
X194249500Y-83678541D01*
X194249500Y-83678543D01*
X194249499Y-83678543D01*
X194287947Y-83871829D01*
X194287950Y-83871839D01*
X194363364Y-84053907D01*
X194363371Y-84053920D01*
X194472859Y-84217780D01*
X194472860Y-84217781D01*
X194472861Y-84217782D01*
X194562182Y-84307103D01*
X194595666Y-84368424D01*
X194598500Y-84394783D01*
X194598500Y-88411192D01*
X194594350Y-88426679D01*
X194595005Y-88440426D01*
X194581887Y-88473192D01*
X194538266Y-88548746D01*
X194487699Y-88596962D01*
X194419092Y-88610185D01*
X194354227Y-88584217D01*
X194343198Y-88574427D01*
X194228312Y-88459541D01*
X194228304Y-88459535D01*
X194159795Y-88419982D01*
X194159791Y-88419980D01*
X194159789Y-88419979D01*
X194159787Y-88419978D01*
X194159784Y-88419977D01*
X194124964Y-88410647D01*
X194065304Y-88374282D01*
X194034776Y-88311434D01*
X194035442Y-88266681D01*
X194044300Y-88222149D01*
X194044300Y-87877848D01*
X194044299Y-87877846D01*
X194032668Y-87819369D01*
X194032667Y-87819367D01*
X194015643Y-87793890D01*
X193994764Y-87727213D01*
X194013248Y-87659833D01*
X194015622Y-87656137D01*
X194032667Y-87630629D01*
X194032667Y-87630628D01*
X194032668Y-87630627D01*
X194044299Y-87572150D01*
X194044300Y-87572148D01*
X194044300Y-87227847D01*
X194044299Y-87227845D01*
X194032668Y-87169368D01*
X194032667Y-87169367D01*
X193988352Y-87103045D01*
X193922030Y-87058730D01*
X193922029Y-87058729D01*
X193863552Y-87047098D01*
X193863548Y-87047098D01*
X193383033Y-87047098D01*
X193315994Y-87027413D01*
X193295352Y-87010779D01*
X189874116Y-83589542D01*
X189874113Y-83589540D01*
X189867961Y-83585988D01*
X189867961Y-83585987D01*
X189805591Y-83549979D01*
X189805592Y-83549979D01*
X189780115Y-83543152D01*
X189729164Y-83529500D01*
X189729162Y-83529500D01*
X186041316Y-83529500D01*
X186022139Y-83523869D01*
X186002165Y-83523157D01*
X185989300Y-83514226D01*
X185974277Y-83509815D01*
X185961190Y-83494711D01*
X185944770Y-83483313D01*
X185930551Y-83459352D01*
X185928522Y-83457011D01*
X185926758Y-83452961D01*
X185921928Y-83441300D01*
X185914456Y-83371836D01*
X185945726Y-83309354D01*
X185948777Y-83306192D01*
X187490460Y-81764511D01*
X187530022Y-81695988D01*
X187550500Y-81619562D01*
X187550500Y-81540438D01*
X187550500Y-67649586D01*
X187570185Y-67582547D01*
X187622989Y-67536792D01*
X187636171Y-67531658D01*
X187672445Y-67519873D01*
X187826788Y-67441232D01*
X187966928Y-67339414D01*
X188089414Y-67216928D01*
X188191232Y-67076788D01*
X188269873Y-66922445D01*
X188323402Y-66757701D01*
X188350500Y-66586611D01*
X188350500Y-66413389D01*
X188323402Y-66242299D01*
X188269873Y-66077555D01*
X188191232Y-65923212D01*
X188089414Y-65783072D01*
X187966928Y-65660586D01*
X187856351Y-65580247D01*
X192399500Y-65580247D01*
X192399500Y-67419752D01*
X192411131Y-67478229D01*
X192411132Y-67478230D01*
X192455447Y-67544552D01*
X192521769Y-67588867D01*
X192521770Y-67588868D01*
X192580247Y-67600499D01*
X192580250Y-67600500D01*
X192580252Y-67600500D01*
X194124167Y-67600500D01*
X194191206Y-67620185D01*
X194211848Y-67636819D01*
X194913181Y-68338152D01*
X194946666Y-68399475D01*
X194949500Y-68425833D01*
X194949500Y-72378683D01*
X194929815Y-72445722D01*
X194877011Y-72491477D01*
X194872953Y-72493244D01*
X194776089Y-72533366D01*
X194776079Y-72533371D01*
X194612218Y-72642860D01*
X194612214Y-72642863D01*
X194472863Y-72782214D01*
X194472860Y-72782218D01*
X194363371Y-72946079D01*
X194363364Y-72946092D01*
X194287950Y-73128160D01*
X194287947Y-73128170D01*
X194249500Y-73321456D01*
X194249500Y-73321459D01*
X194249500Y-73518541D01*
X194249500Y-73518543D01*
X194249499Y-73518543D01*
X194287947Y-73711829D01*
X194287950Y-73711839D01*
X194363364Y-73893907D01*
X194363371Y-73893920D01*
X194472860Y-74057781D01*
X194472863Y-74057785D01*
X194612214Y-74197136D01*
X194612218Y-74197139D01*
X194776079Y-74306628D01*
X194776092Y-74306635D01*
X194958160Y-74382049D01*
X194958165Y-74382051D01*
X194958169Y-74382051D01*
X194958170Y-74382052D01*
X195151456Y-74420500D01*
X195151459Y-74420500D01*
X195348543Y-74420500D01*
X195478582Y-74394632D01*
X195541835Y-74382051D01*
X195682655Y-74323721D01*
X195723907Y-74306635D01*
X195723907Y-74306634D01*
X195723914Y-74306632D01*
X195887782Y-74197139D01*
X196027139Y-74057782D01*
X196136632Y-73893914D01*
X196212051Y-73711835D01*
X196226728Y-73638051D01*
X196250500Y-73518543D01*
X196250500Y-73321456D01*
X196212052Y-73128170D01*
X196212051Y-73128169D01*
X196212051Y-73128165D01*
X196212049Y-73128160D01*
X196136635Y-72946092D01*
X196136628Y-72946079D01*
X196027139Y-72782218D01*
X196027136Y-72782214D01*
X195887785Y-72642863D01*
X195887781Y-72642860D01*
X195723920Y-72533371D01*
X195723910Y-72533366D01*
X195627047Y-72493244D01*
X195572644Y-72449403D01*
X195550579Y-72383109D01*
X195550500Y-72378683D01*
X195550500Y-68210439D01*
X195550500Y-68210438D01*
X195547569Y-68199500D01*
X195530022Y-68134012D01*
X195490460Y-68065489D01*
X194636819Y-67211848D01*
X194603334Y-67150525D01*
X194600500Y-67124167D01*
X194600500Y-65580249D01*
X194600499Y-65580247D01*
X194588868Y-65521770D01*
X194588867Y-65521769D01*
X194544552Y-65455447D01*
X194478230Y-65411132D01*
X194478229Y-65411131D01*
X194419752Y-65399500D01*
X194419748Y-65399500D01*
X192580252Y-65399500D01*
X192580247Y-65399500D01*
X192521770Y-65411131D01*
X192521769Y-65411132D01*
X192455447Y-65455447D01*
X192411132Y-65521769D01*
X192411131Y-65521770D01*
X192399500Y-65580247D01*
X187856351Y-65580247D01*
X187826788Y-65558768D01*
X187672445Y-65480127D01*
X187507701Y-65426598D01*
X187507699Y-65426597D01*
X187507698Y-65426597D01*
X187376271Y-65405781D01*
X187336611Y-65399500D01*
X187163389Y-65399500D01*
X187123728Y-65405781D01*
X186992302Y-65426597D01*
X186827552Y-65480128D01*
X186673211Y-65558768D01*
X186593256Y-65616859D01*
X186533072Y-65660586D01*
X186533070Y-65660588D01*
X186533069Y-65660588D01*
X186410588Y-65783069D01*
X186410588Y-65783070D01*
X186410586Y-65783072D01*
X186366859Y-65843256D01*
X186308768Y-65923211D01*
X186230128Y-66077552D01*
X186176597Y-66242302D01*
X186149500Y-66413389D01*
X186149500Y-66586611D01*
X186176598Y-66757701D01*
X186230127Y-66922445D01*
X186308768Y-67076788D01*
X186410586Y-67216928D01*
X186533072Y-67339414D01*
X186638177Y-67415777D01*
X186673213Y-67441233D01*
X186745823Y-67478229D01*
X186827555Y-67519873D01*
X186863818Y-67531655D01*
X186921492Y-67571091D01*
X186948691Y-67635449D01*
X186949500Y-67649586D01*
X186949500Y-81404166D01*
X186929815Y-81471205D01*
X186913181Y-81491847D01*
X185523835Y-82881192D01*
X185462512Y-82914677D01*
X185392820Y-82909693D01*
X185388702Y-82908072D01*
X185291839Y-82867950D01*
X185291829Y-82867947D01*
X185098543Y-82829500D01*
X185098541Y-82829500D01*
X184901459Y-82829500D01*
X184901457Y-82829500D01*
X184708170Y-82867947D01*
X184708160Y-82867950D01*
X184526092Y-82943364D01*
X184526079Y-82943371D01*
X184362218Y-83052860D01*
X184362214Y-83052863D01*
X184222863Y-83192214D01*
X184222860Y-83192218D01*
X184113371Y-83356079D01*
X184113364Y-83356092D01*
X184037950Y-83538160D01*
X184037947Y-83538170D01*
X183999500Y-83731456D01*
X183999500Y-83731459D01*
X183999500Y-83928541D01*
X183999500Y-83928543D01*
X183999499Y-83928543D01*
X184037947Y-84121829D01*
X184037950Y-84121839D01*
X184078072Y-84218702D01*
X184080208Y-84238575D01*
X184087195Y-84257305D01*
X184083867Y-84272604D01*
X184085541Y-84288171D01*
X184076593Y-84306045D01*
X184072345Y-84325578D01*
X184055657Y-84347870D01*
X184054266Y-84350650D01*
X184051194Y-84353833D01*
X184031049Y-84373979D01*
X183969727Y-84407466D01*
X183943366Y-84410300D01*
X179579685Y-84410300D01*
X179512646Y-84390615D01*
X179466891Y-84337811D01*
X179456947Y-84268653D01*
X179479367Y-84213415D01*
X179585269Y-84067651D01*
X179585268Y-84067651D01*
X179585272Y-84067647D01*
X179666757Y-83907723D01*
X179722222Y-83737021D01*
X179750300Y-83559744D01*
X179750300Y-83380256D01*
X179722222Y-83202979D01*
X179666757Y-83032277D01*
X179585272Y-82872353D01*
X179585270Y-82872350D01*
X179585269Y-82872348D01*
X179479777Y-82727150D01*
X179479773Y-82727145D01*
X179352854Y-82600226D01*
X179352849Y-82600222D01*
X179207651Y-82494730D01*
X179047725Y-82413244D01*
X179047724Y-82413243D01*
X179047723Y-82413243D01*
X178877021Y-82357778D01*
X178877019Y-82357777D01*
X178877018Y-82357777D01*
X178740838Y-82336208D01*
X178699744Y-82329700D01*
X178520256Y-82329700D01*
X178479161Y-82336208D01*
X178342982Y-82357777D01*
X178172274Y-82413244D01*
X178012348Y-82494730D01*
X177867150Y-82600222D01*
X177867145Y-82600226D01*
X177740226Y-82727145D01*
X177740222Y-82727150D01*
X177634730Y-82872348D01*
X177553244Y-83032274D01*
X177497777Y-83202982D01*
X177476149Y-83339540D01*
X177469700Y-83380256D01*
X177469700Y-83559744D01*
X177473857Y-83585988D01*
X177496896Y-83731456D01*
X177497778Y-83737021D01*
X177545318Y-83883334D01*
X177553244Y-83907725D01*
X177634730Y-84067651D01*
X177740633Y-84213415D01*
X177764113Y-84279222D01*
X177748287Y-84347275D01*
X177698181Y-84395970D01*
X177640315Y-84410300D01*
X157166633Y-84410300D01*
X157099594Y-84390615D01*
X157078952Y-84373981D01*
X156804957Y-84099986D01*
X156771472Y-84038663D01*
X156776456Y-83968971D01*
X156782154Y-83956009D01*
X156806755Y-83907727D01*
X156806756Y-83907725D01*
X156806757Y-83907723D01*
X156862222Y-83737021D01*
X156890300Y-83559744D01*
X156890300Y-83380256D01*
X156862222Y-83202979D01*
X156806757Y-83032277D01*
X156725272Y-82872353D01*
X156725270Y-82872350D01*
X156725269Y-82872348D01*
X156619777Y-82727150D01*
X156619773Y-82727145D01*
X156492854Y-82600226D01*
X156492849Y-82600222D01*
X156347651Y-82494730D01*
X156187725Y-82413244D01*
X156187724Y-82413243D01*
X156187723Y-82413243D01*
X156017021Y-82357778D01*
X156017019Y-82357777D01*
X156017018Y-82357777D01*
X155880838Y-82336208D01*
X155839744Y-82329700D01*
X155660256Y-82329700D01*
X155619161Y-82336208D01*
X155482982Y-82357777D01*
X155312274Y-82413244D01*
X155152348Y-82494730D01*
X155007150Y-82600222D01*
X155007145Y-82600226D01*
X154880226Y-82727145D01*
X154880222Y-82727150D01*
X154774730Y-82872348D01*
X154693244Y-83032274D01*
X154637777Y-83202982D01*
X154616149Y-83339540D01*
X154609700Y-83380256D01*
X154609700Y-83559744D01*
X154613857Y-83585988D01*
X154636896Y-83731456D01*
X154637778Y-83737021D01*
X154685318Y-83883334D01*
X154693244Y-83907725D01*
X154774730Y-84067651D01*
X154880222Y-84212849D01*
X154880226Y-84212854D01*
X155007145Y-84339773D01*
X155007150Y-84339777D01*
X155152348Y-84445269D01*
X155152350Y-84445270D01*
X155152353Y-84445272D01*
X155312277Y-84526757D01*
X155482979Y-84582222D01*
X155660256Y-84610300D01*
X155660257Y-84610300D01*
X155839743Y-84610300D01*
X155839744Y-84610300D01*
X156017021Y-84582222D01*
X156187723Y-84526757D01*
X156236009Y-84502153D01*
X156304678Y-84489257D01*
X156369419Y-84515533D01*
X156379986Y-84524957D01*
X156750340Y-84895311D01*
X156806289Y-84951260D01*
X156806291Y-84951261D01*
X156806295Y-84951264D01*
X156809725Y-84953244D01*
X156874811Y-84990821D01*
X156951238Y-85011300D01*
X177696710Y-85011300D01*
X177763749Y-85030985D01*
X177809504Y-85083789D01*
X177819448Y-85152947D01*
X177790423Y-85216503D01*
X177784391Y-85222981D01*
X177740226Y-85267145D01*
X177740222Y-85267150D01*
X177634730Y-85412348D01*
X177553244Y-85572274D01*
X177497777Y-85742982D01*
X177469700Y-85920256D01*
X177469700Y-86099743D01*
X177497777Y-86277017D01*
X177553244Y-86447725D01*
X177634730Y-86607651D01*
X177740222Y-86752849D01*
X177740226Y-86752854D01*
X177867145Y-86879773D01*
X177867150Y-86879777D01*
X178012348Y-86985269D01*
X178012350Y-86985270D01*
X178012353Y-86985272D01*
X178172277Y-87066757D01*
X178342979Y-87122222D01*
X178520256Y-87150300D01*
X178520257Y-87150300D01*
X178699743Y-87150300D01*
X178699744Y-87150300D01*
X178877021Y-87122222D01*
X179047723Y-87066757D01*
X179207647Y-86985272D01*
X179352856Y-86879772D01*
X179479772Y-86752856D01*
X179585272Y-86607647D01*
X179666757Y-86447723D01*
X179722222Y-86277021D01*
X179750300Y-86099744D01*
X179750300Y-85920256D01*
X179722222Y-85742979D01*
X179666757Y-85572277D01*
X179585272Y-85412353D01*
X179585270Y-85412350D01*
X179585269Y-85412348D01*
X179479777Y-85267150D01*
X179479773Y-85267145D01*
X179435609Y-85222981D01*
X179402124Y-85161658D01*
X179407108Y-85091966D01*
X179448980Y-85036033D01*
X179514444Y-85011616D01*
X179523290Y-85011300D01*
X184158760Y-85011300D01*
X184158762Y-85011300D01*
X184235189Y-84990821D01*
X184303711Y-84951260D01*
X184359660Y-84895311D01*
X184476164Y-84778805D01*
X184537485Y-84745321D01*
X184607177Y-84750305D01*
X184611254Y-84751909D01*
X184708165Y-84792051D01*
X184708169Y-84792051D01*
X184708170Y-84792052D01*
X184901456Y-84830500D01*
X184901459Y-84830500D01*
X185098543Y-84830500D01*
X185228582Y-84804632D01*
X185291835Y-84792051D01*
X185473914Y-84716632D01*
X185637782Y-84607139D01*
X185777139Y-84467782D01*
X185886632Y-84303914D01*
X185901238Y-84268653D01*
X185926755Y-84207048D01*
X185970595Y-84152644D01*
X186036889Y-84130579D01*
X186041316Y-84130500D01*
X189513769Y-84130500D01*
X189580808Y-84150185D01*
X189601450Y-84166819D01*
X192462350Y-87027719D01*
X192495835Y-87089042D01*
X192490851Y-87158734D01*
X192489232Y-87162849D01*
X192486532Y-87169367D01*
X192474900Y-87227845D01*
X192474900Y-87572150D01*
X192486531Y-87630626D01*
X192486532Y-87630628D01*
X192486533Y-87630629D01*
X192503557Y-87656107D01*
X192524435Y-87722784D01*
X192505951Y-87790164D01*
X192503558Y-87793888D01*
X192486532Y-87819369D01*
X192486531Y-87819369D01*
X192474900Y-87877846D01*
X192474900Y-88222151D01*
X192486531Y-88280627D01*
X192486532Y-88280629D01*
X192486533Y-88280630D01*
X192503557Y-88306108D01*
X192524435Y-88372785D01*
X192505951Y-88440165D01*
X192503558Y-88443889D01*
X192486532Y-88469370D01*
X192486531Y-88469370D01*
X192474900Y-88527847D01*
X192474900Y-88872152D01*
X192488915Y-88942610D01*
X192487032Y-88942984D01*
X192492883Y-88997397D01*
X192461610Y-89059877D01*
X192432853Y-89082770D01*
X192386491Y-89109536D01*
X192386486Y-89109540D01*
X189509541Y-91986485D01*
X189509535Y-91986493D01*
X189469982Y-92055002D01*
X189469979Y-92055007D01*
X189449500Y-92131437D01*
X189449500Y-92717640D01*
X189429815Y-92784679D01*
X189377011Y-92830434D01*
X189358842Y-92835911D01*
X189358981Y-92836337D01*
X189349699Y-92839352D01*
X189294297Y-92867580D01*
X189236658Y-92896950D01*
X189236657Y-92896951D01*
X189236652Y-92896954D01*
X189146954Y-92986652D01*
X189146951Y-92986657D01*
X189146950Y-92986658D01*
X189111212Y-93056796D01*
X189063239Y-93107591D01*
X189000729Y-93124500D01*
X187785438Y-93124500D01*
X187747224Y-93134739D01*
X187709009Y-93144979D01*
X187709004Y-93144982D01*
X187640495Y-93184535D01*
X187640487Y-93184541D01*
X184759541Y-96065487D01*
X184759535Y-96065495D01*
X184719982Y-96134004D01*
X184719979Y-96134009D01*
X184699500Y-96210439D01*
X184699500Y-102304166D01*
X184679815Y-102371205D01*
X184663181Y-102391847D01*
X179239985Y-107815042D01*
X179178662Y-107848527D01*
X179108970Y-107843543D01*
X179096010Y-107837846D01*
X179047730Y-107813246D01*
X179047724Y-107813243D01*
X179047723Y-107813243D01*
X178877021Y-107757778D01*
X178877019Y-107757777D01*
X178877018Y-107757777D01*
X178740838Y-107736208D01*
X178699744Y-107729700D01*
X178520256Y-107729700D01*
X178479161Y-107736208D01*
X178342982Y-107757777D01*
X178172274Y-107813244D01*
X178012348Y-107894730D01*
X177867150Y-108000222D01*
X177867145Y-108000226D01*
X177740226Y-108127145D01*
X177740222Y-108127150D01*
X177634730Y-108272348D01*
X177553244Y-108432272D01*
X177536496Y-108483819D01*
X177497058Y-108541494D01*
X177432699Y-108568692D01*
X177418565Y-108569500D01*
X156941435Y-108569500D01*
X156874396Y-108549815D01*
X156828641Y-108497011D01*
X156823504Y-108483819D01*
X156806755Y-108432272D01*
X156762131Y-108344695D01*
X156725272Y-108272353D01*
X156725270Y-108272350D01*
X156725269Y-108272348D01*
X156619777Y-108127150D01*
X156619773Y-108127145D01*
X156492854Y-108000226D01*
X156492849Y-108000222D01*
X156347651Y-107894730D01*
X156187725Y-107813244D01*
X156187724Y-107813243D01*
X156187723Y-107813243D01*
X156017021Y-107757778D01*
X156017019Y-107757777D01*
X156017018Y-107757777D01*
X155880838Y-107736208D01*
X155839744Y-107729700D01*
X155660256Y-107729700D01*
X155619161Y-107736208D01*
X155482982Y-107757777D01*
X155312274Y-107813244D01*
X155152348Y-107894730D01*
X155007150Y-108000222D01*
X155007145Y-108000226D01*
X154880226Y-108127145D01*
X154880222Y-108127150D01*
X154774730Y-108272348D01*
X154693244Y-108432274D01*
X154637777Y-108602982D01*
X154609700Y-108780256D01*
X154609700Y-108959744D01*
X154637778Y-109137021D01*
X154672209Y-109242989D01*
X154693244Y-109307725D01*
X154774730Y-109467651D01*
X154880222Y-109612849D01*
X154880226Y-109612854D01*
X155007145Y-109739773D01*
X155007150Y-109739777D01*
X155152351Y-109845271D01*
X155184096Y-109861446D01*
X155234893Y-109909420D01*
X155251688Y-109977241D01*
X155229151Y-110043376D01*
X155184097Y-110082416D01*
X154995376Y-110178575D01*
X154923992Y-110230438D01*
X154923991Y-110230439D01*
X155614057Y-110920504D01*
X155553919Y-110936619D01*
X155438080Y-111003498D01*
X155343498Y-111098080D01*
X155276619Y-111213919D01*
X155260504Y-111274057D01*
X154570439Y-110583991D01*
X154570438Y-110583992D01*
X154518575Y-110655376D01*
X154415683Y-110857311D01*
X154345653Y-111072841D01*
X154345653Y-111072844D01*
X154310200Y-111296685D01*
X153500500Y-111296685D01*
X153500500Y-106240256D01*
X154609700Y-106240256D01*
X154609700Y-106419743D01*
X154637777Y-106597017D01*
X154693244Y-106767725D01*
X154774730Y-106927651D01*
X154880222Y-107072849D01*
X154880226Y-107072854D01*
X155007145Y-107199773D01*
X155007150Y-107199777D01*
X155152348Y-107305269D01*
X155152350Y-107305270D01*
X155152353Y-107305272D01*
X155312277Y-107386757D01*
X155482979Y-107442222D01*
X155660256Y-107470300D01*
X155660257Y-107470300D01*
X155839743Y-107470300D01*
X155839744Y-107470300D01*
X156017021Y-107442222D01*
X156187723Y-107386757D01*
X156347647Y-107305272D01*
X156492856Y-107199772D01*
X156619772Y-107072856D01*
X156725272Y-106927647D01*
X156806757Y-106767723D01*
X156862222Y-106597021D01*
X156890300Y-106419744D01*
X156890300Y-106240256D01*
X177469700Y-106240256D01*
X177469700Y-106419743D01*
X177497777Y-106597017D01*
X177553244Y-106767725D01*
X177634730Y-106927651D01*
X177740222Y-107072849D01*
X177740226Y-107072854D01*
X177867145Y-107199773D01*
X177867150Y-107199777D01*
X178012348Y-107305269D01*
X178012350Y-107305270D01*
X178012353Y-107305272D01*
X178172277Y-107386757D01*
X178342979Y-107442222D01*
X178520256Y-107470300D01*
X178520257Y-107470300D01*
X178699743Y-107470300D01*
X178699744Y-107470300D01*
X178877021Y-107442222D01*
X179047723Y-107386757D01*
X179207647Y-107305272D01*
X179352856Y-107199772D01*
X179479772Y-107072856D01*
X179585272Y-106927647D01*
X179666757Y-106767723D01*
X179722222Y-106597021D01*
X179750300Y-106419744D01*
X179750300Y-106240256D01*
X179722222Y-106062979D01*
X179666757Y-105892277D01*
X179585272Y-105732353D01*
X179585270Y-105732350D01*
X179585269Y-105732348D01*
X179479777Y-105587150D01*
X179479773Y-105587145D01*
X179352854Y-105460226D01*
X179352849Y-105460222D01*
X179207651Y-105354730D01*
X179047725Y-105273244D01*
X179047724Y-105273243D01*
X179047723Y-105273243D01*
X178877021Y-105217778D01*
X178877019Y-105217777D01*
X178877018Y-105217777D01*
X178740838Y-105196208D01*
X178699744Y-105189700D01*
X178520256Y-105189700D01*
X178479161Y-105196208D01*
X178342982Y-105217777D01*
X178172274Y-105273244D01*
X178012348Y-105354730D01*
X177867150Y-105460222D01*
X177867145Y-105460226D01*
X177740226Y-105587145D01*
X177740222Y-105587150D01*
X177634730Y-105732348D01*
X177553244Y-105892274D01*
X177497777Y-106062982D01*
X177469700Y-106240256D01*
X156890300Y-106240256D01*
X156862222Y-106062979D01*
X156806757Y-105892277D01*
X156725272Y-105732353D01*
X156725270Y-105732350D01*
X156725269Y-105732348D01*
X156619777Y-105587150D01*
X156619773Y-105587145D01*
X156492854Y-105460226D01*
X156492849Y-105460222D01*
X156347651Y-105354730D01*
X156187725Y-105273244D01*
X156187724Y-105273243D01*
X156187723Y-105273243D01*
X156017021Y-105217778D01*
X156017019Y-105217777D01*
X156017018Y-105217777D01*
X155880838Y-105196208D01*
X155839744Y-105189700D01*
X155660256Y-105189700D01*
X155619161Y-105196208D01*
X155482982Y-105217777D01*
X155312274Y-105273244D01*
X155152348Y-105354730D01*
X155007150Y-105460222D01*
X155007145Y-105460226D01*
X154880226Y-105587145D01*
X154880222Y-105587150D01*
X154774730Y-105732348D01*
X154693244Y-105892274D01*
X154637777Y-106062982D01*
X154609700Y-106240256D01*
X153500500Y-106240256D01*
X153500500Y-103700256D01*
X154609700Y-103700256D01*
X154609700Y-103879743D01*
X154637777Y-104057017D01*
X154693244Y-104227725D01*
X154774730Y-104387651D01*
X154880222Y-104532849D01*
X154880226Y-104532854D01*
X155007145Y-104659773D01*
X155007150Y-104659777D01*
X155152348Y-104765269D01*
X155152350Y-104765270D01*
X155152353Y-104765272D01*
X155312277Y-104846757D01*
X155482979Y-104902222D01*
X155660256Y-104930300D01*
X155660257Y-104930300D01*
X155839743Y-104930300D01*
X155839744Y-104930300D01*
X156017021Y-104902222D01*
X156187723Y-104846757D01*
X156347647Y-104765272D01*
X156492856Y-104659772D01*
X156619772Y-104532856D01*
X156725272Y-104387647D01*
X156806757Y-104227723D01*
X156862222Y-104057021D01*
X156890300Y-103879744D01*
X156890300Y-103700256D01*
X177469700Y-103700256D01*
X177469700Y-103879743D01*
X177497777Y-104057017D01*
X177553244Y-104227725D01*
X177634730Y-104387651D01*
X177740222Y-104532849D01*
X177740226Y-104532854D01*
X177867145Y-104659773D01*
X177867150Y-104659777D01*
X178012348Y-104765269D01*
X178012350Y-104765270D01*
X178012353Y-104765272D01*
X178172277Y-104846757D01*
X178342979Y-104902222D01*
X178520256Y-104930300D01*
X178520257Y-104930300D01*
X178699743Y-104930300D01*
X178699744Y-104930300D01*
X178877021Y-104902222D01*
X179047723Y-104846757D01*
X179207647Y-104765272D01*
X179352856Y-104659772D01*
X179479772Y-104532856D01*
X179585272Y-104387647D01*
X179666757Y-104227723D01*
X179722222Y-104057021D01*
X179750300Y-103879744D01*
X179750300Y-103700256D01*
X179722222Y-103522979D01*
X179666757Y-103352277D01*
X179585272Y-103192353D01*
X179585270Y-103192350D01*
X179585269Y-103192348D01*
X179479777Y-103047150D01*
X179479773Y-103047145D01*
X179352854Y-102920226D01*
X179352849Y-102920222D01*
X179207651Y-102814730D01*
X179047725Y-102733244D01*
X179047724Y-102733243D01*
X179047723Y-102733243D01*
X178877021Y-102677778D01*
X178877019Y-102677777D01*
X178877018Y-102677777D01*
X178740838Y-102656208D01*
X178699744Y-102649700D01*
X178520256Y-102649700D01*
X178479161Y-102656208D01*
X178342982Y-102677777D01*
X178172274Y-102733244D01*
X178012348Y-102814730D01*
X177867150Y-102920222D01*
X177867145Y-102920226D01*
X177740226Y-103047145D01*
X177740222Y-103047150D01*
X177634730Y-103192348D01*
X177553244Y-103352274D01*
X177497777Y-103522982D01*
X177469700Y-103700256D01*
X156890300Y-103700256D01*
X156862222Y-103522979D01*
X156806757Y-103352277D01*
X156725272Y-103192353D01*
X156725270Y-103192350D01*
X156725269Y-103192348D01*
X156619777Y-103047150D01*
X156619773Y-103047145D01*
X156492854Y-102920226D01*
X156492849Y-102920222D01*
X156347651Y-102814730D01*
X156187725Y-102733244D01*
X156187724Y-102733243D01*
X156187723Y-102733243D01*
X156017021Y-102677778D01*
X156017019Y-102677777D01*
X156017018Y-102677777D01*
X155880838Y-102656208D01*
X155839744Y-102649700D01*
X155660256Y-102649700D01*
X155619161Y-102656208D01*
X155482982Y-102677777D01*
X155312274Y-102733244D01*
X155152348Y-102814730D01*
X155007150Y-102920222D01*
X155007145Y-102920226D01*
X154880226Y-103047145D01*
X154880222Y-103047150D01*
X154774730Y-103192348D01*
X154693244Y-103352274D01*
X154637777Y-103522982D01*
X154609700Y-103700256D01*
X153500500Y-103700256D01*
X153500500Y-101160256D01*
X154609700Y-101160256D01*
X154609700Y-101339743D01*
X154637777Y-101517017D01*
X154693244Y-101687725D01*
X154774730Y-101847651D01*
X154880222Y-101992849D01*
X154880226Y-101992854D01*
X155007145Y-102119773D01*
X155007150Y-102119777D01*
X155152348Y-102225269D01*
X155152350Y-102225270D01*
X155152353Y-102225272D01*
X155312277Y-102306757D01*
X155482979Y-102362222D01*
X155660256Y-102390300D01*
X155660257Y-102390300D01*
X155839743Y-102390300D01*
X155839744Y-102390300D01*
X156017021Y-102362222D01*
X156187723Y-102306757D01*
X156347647Y-102225272D01*
X156492856Y-102119772D01*
X156619772Y-101992856D01*
X156725272Y-101847647D01*
X156806757Y-101687723D01*
X156862222Y-101517021D01*
X156890300Y-101339744D01*
X156890300Y-101160256D01*
X177469700Y-101160256D01*
X177469700Y-101339743D01*
X177497777Y-101517017D01*
X177553244Y-101687725D01*
X177634730Y-101847651D01*
X177740222Y-101992849D01*
X177740226Y-101992854D01*
X177867145Y-102119773D01*
X177867150Y-102119777D01*
X178012348Y-102225269D01*
X178012350Y-102225270D01*
X178012353Y-102225272D01*
X178172277Y-102306757D01*
X178342979Y-102362222D01*
X178520256Y-102390300D01*
X178520257Y-102390300D01*
X178699743Y-102390300D01*
X178699744Y-102390300D01*
X178877021Y-102362222D01*
X179047723Y-102306757D01*
X179207647Y-102225272D01*
X179352856Y-102119772D01*
X179479772Y-101992856D01*
X179585272Y-101847647D01*
X179666757Y-101687723D01*
X179722222Y-101517021D01*
X179750300Y-101339744D01*
X179750300Y-101160256D01*
X179722222Y-100982979D01*
X179666757Y-100812277D01*
X179585272Y-100652353D01*
X179585270Y-100652350D01*
X179585269Y-100652348D01*
X179479777Y-100507150D01*
X179479773Y-100507145D01*
X179352854Y-100380226D01*
X179352849Y-100380222D01*
X179207651Y-100274730D01*
X179047725Y-100193244D01*
X179047724Y-100193243D01*
X179047723Y-100193243D01*
X178877021Y-100137778D01*
X178877019Y-100137777D01*
X178877018Y-100137777D01*
X178740838Y-100116208D01*
X178699744Y-100109700D01*
X178520256Y-100109700D01*
X178479161Y-100116208D01*
X178342982Y-100137777D01*
X178172274Y-100193244D01*
X178012348Y-100274730D01*
X177867150Y-100380222D01*
X177867145Y-100380226D01*
X177740226Y-100507145D01*
X177740222Y-100507150D01*
X177634730Y-100652348D01*
X177553244Y-100812274D01*
X177497777Y-100982982D01*
X177469700Y-101160256D01*
X156890300Y-101160256D01*
X156862222Y-100982979D01*
X156806757Y-100812277D01*
X156725272Y-100652353D01*
X156725270Y-100652350D01*
X156725269Y-100652348D01*
X156619777Y-100507150D01*
X156619773Y-100507145D01*
X156492854Y-100380226D01*
X156492849Y-100380222D01*
X156347651Y-100274730D01*
X156187725Y-100193244D01*
X156187724Y-100193243D01*
X156187723Y-100193243D01*
X156017021Y-100137778D01*
X156017019Y-100137777D01*
X156017018Y-100137777D01*
X155880838Y-100116208D01*
X155839744Y-100109700D01*
X155660256Y-100109700D01*
X155619161Y-100116208D01*
X155482982Y-100137777D01*
X155312274Y-100193244D01*
X155152348Y-100274730D01*
X155007150Y-100380222D01*
X155007145Y-100380226D01*
X154880226Y-100507145D01*
X154880222Y-100507150D01*
X154774730Y-100652348D01*
X154693244Y-100812274D01*
X154637777Y-100982982D01*
X154609700Y-101160256D01*
X153500500Y-101160256D01*
X153500500Y-98620256D01*
X154609700Y-98620256D01*
X154609700Y-98799743D01*
X154637777Y-98977017D01*
X154693244Y-99147725D01*
X154774730Y-99307651D01*
X154880222Y-99452849D01*
X154880226Y-99452854D01*
X155007145Y-99579773D01*
X155007150Y-99579777D01*
X155152348Y-99685269D01*
X155152350Y-99685270D01*
X155152353Y-99685272D01*
X155312277Y-99766757D01*
X155482979Y-99822222D01*
X155660256Y-99850300D01*
X155660257Y-99850300D01*
X155839743Y-99850300D01*
X155839744Y-99850300D01*
X156017021Y-99822222D01*
X156187723Y-99766757D01*
X156347647Y-99685272D01*
X156492856Y-99579772D01*
X156619772Y-99452856D01*
X156725272Y-99307647D01*
X156806757Y-99147723D01*
X156862222Y-98977021D01*
X156890300Y-98799744D01*
X156890300Y-98620256D01*
X177469700Y-98620256D01*
X177469700Y-98799743D01*
X177497777Y-98977017D01*
X177553244Y-99147725D01*
X177634730Y-99307651D01*
X177740222Y-99452849D01*
X177740226Y-99452854D01*
X177867145Y-99579773D01*
X177867150Y-99579777D01*
X178012348Y-99685269D01*
X178012350Y-99685270D01*
X178012353Y-99685272D01*
X178172277Y-99766757D01*
X178342979Y-99822222D01*
X178520256Y-99850300D01*
X178520257Y-99850300D01*
X178699743Y-99850300D01*
X178699744Y-99850300D01*
X178877021Y-99822222D01*
X179047723Y-99766757D01*
X179207647Y-99685272D01*
X179352856Y-99579772D01*
X179479772Y-99452856D01*
X179585272Y-99307647D01*
X179666757Y-99147723D01*
X179722222Y-98977021D01*
X179750300Y-98799744D01*
X179750300Y-98620256D01*
X179722222Y-98442979D01*
X179666757Y-98272277D01*
X179585272Y-98112353D01*
X179585270Y-98112350D01*
X179585269Y-98112348D01*
X179479777Y-97967150D01*
X179479773Y-97967145D01*
X179352854Y-97840226D01*
X179352849Y-97840222D01*
X179207651Y-97734730D01*
X179047725Y-97653244D01*
X179047724Y-97653243D01*
X179047723Y-97653243D01*
X178877021Y-97597778D01*
X178877019Y-97597777D01*
X178877018Y-97597777D01*
X178740838Y-97576208D01*
X178699744Y-97569700D01*
X178520256Y-97569700D01*
X178479161Y-97576208D01*
X178342982Y-97597777D01*
X178172274Y-97653244D01*
X178012348Y-97734730D01*
X177867150Y-97840222D01*
X177867145Y-97840226D01*
X177740226Y-97967145D01*
X177740222Y-97967150D01*
X177634730Y-98112348D01*
X177553244Y-98272274D01*
X177497777Y-98442982D01*
X177469700Y-98620256D01*
X156890300Y-98620256D01*
X156862222Y-98442979D01*
X156806757Y-98272277D01*
X156725272Y-98112353D01*
X156725270Y-98112350D01*
X156725269Y-98112348D01*
X156619777Y-97967150D01*
X156619773Y-97967145D01*
X156492854Y-97840226D01*
X156492849Y-97840222D01*
X156347651Y-97734730D01*
X156187725Y-97653244D01*
X156187724Y-97653243D01*
X156187723Y-97653243D01*
X156017021Y-97597778D01*
X156017019Y-97597777D01*
X156017018Y-97597777D01*
X155880838Y-97576208D01*
X155839744Y-97569700D01*
X155660256Y-97569700D01*
X155619161Y-97576208D01*
X155482982Y-97597777D01*
X155312274Y-97653244D01*
X155152348Y-97734730D01*
X155007150Y-97840222D01*
X155007145Y-97840226D01*
X154880226Y-97967145D01*
X154880222Y-97967150D01*
X154774730Y-98112348D01*
X154693244Y-98272274D01*
X154637777Y-98442982D01*
X154609700Y-98620256D01*
X153500500Y-98620256D01*
X153500500Y-96080256D01*
X154609700Y-96080256D01*
X154609700Y-96259743D01*
X154637777Y-96437017D01*
X154693244Y-96607725D01*
X154774730Y-96767651D01*
X154880222Y-96912849D01*
X154880226Y-96912854D01*
X155007145Y-97039773D01*
X155007150Y-97039777D01*
X155152348Y-97145269D01*
X155152350Y-97145270D01*
X155152353Y-97145272D01*
X155312277Y-97226757D01*
X155482979Y-97282222D01*
X155660256Y-97310300D01*
X155660257Y-97310300D01*
X155839743Y-97310300D01*
X155839744Y-97310300D01*
X156017021Y-97282222D01*
X156187723Y-97226757D01*
X156347647Y-97145272D01*
X156492856Y-97039772D01*
X156619772Y-96912856D01*
X156725272Y-96767647D01*
X156806757Y-96607723D01*
X156862222Y-96437021D01*
X156890300Y-96259744D01*
X156890300Y-96080256D01*
X177469700Y-96080256D01*
X177469700Y-96259743D01*
X177497777Y-96437017D01*
X177553244Y-96607725D01*
X177634730Y-96767651D01*
X177740222Y-96912849D01*
X177740226Y-96912854D01*
X177867145Y-97039773D01*
X177867150Y-97039777D01*
X178012348Y-97145269D01*
X178012350Y-97145270D01*
X178012353Y-97145272D01*
X178172277Y-97226757D01*
X178342979Y-97282222D01*
X178520256Y-97310300D01*
X178520257Y-97310300D01*
X178699743Y-97310300D01*
X178699744Y-97310300D01*
X178877021Y-97282222D01*
X179047723Y-97226757D01*
X179207647Y-97145272D01*
X179352856Y-97039772D01*
X179479772Y-96912856D01*
X179585272Y-96767647D01*
X179666757Y-96607723D01*
X179722222Y-96437021D01*
X179750300Y-96259744D01*
X179750300Y-96080256D01*
X179722222Y-95902979D01*
X179666757Y-95732277D01*
X179585272Y-95572353D01*
X179585270Y-95572350D01*
X179585269Y-95572348D01*
X179479777Y-95427150D01*
X179479773Y-95427145D01*
X179352854Y-95300226D01*
X179352849Y-95300222D01*
X179207651Y-95194730D01*
X179047725Y-95113244D01*
X179047724Y-95113243D01*
X179047723Y-95113243D01*
X178877021Y-95057778D01*
X178877019Y-95057777D01*
X178877018Y-95057777D01*
X178740838Y-95036208D01*
X178699744Y-95029700D01*
X178520256Y-95029700D01*
X178479161Y-95036208D01*
X178342982Y-95057777D01*
X178172274Y-95113244D01*
X178012348Y-95194730D01*
X177867150Y-95300222D01*
X177867145Y-95300226D01*
X177740226Y-95427145D01*
X177740222Y-95427150D01*
X177634730Y-95572348D01*
X177553244Y-95732274D01*
X177497777Y-95902982D01*
X177469700Y-96080256D01*
X156890300Y-96080256D01*
X156862222Y-95902979D01*
X156806757Y-95732277D01*
X156725272Y-95572353D01*
X156725270Y-95572350D01*
X156725269Y-95572348D01*
X156619777Y-95427150D01*
X156619773Y-95427145D01*
X156492854Y-95300226D01*
X156492849Y-95300222D01*
X156347651Y-95194730D01*
X156187725Y-95113244D01*
X156187724Y-95113243D01*
X156187723Y-95113243D01*
X156017021Y-95057778D01*
X156017019Y-95057777D01*
X156017018Y-95057777D01*
X155880838Y-95036208D01*
X155839744Y-95029700D01*
X155660256Y-95029700D01*
X155619161Y-95036208D01*
X155482982Y-95057777D01*
X155312274Y-95113244D01*
X155152348Y-95194730D01*
X155007150Y-95300222D01*
X155007145Y-95300226D01*
X154880226Y-95427145D01*
X154880222Y-95427150D01*
X154774730Y-95572348D01*
X154693244Y-95732274D01*
X154637777Y-95902982D01*
X154609700Y-96080256D01*
X153500500Y-96080256D01*
X153500500Y-93540256D01*
X154609700Y-93540256D01*
X154609700Y-93719744D01*
X154614540Y-93750301D01*
X154632444Y-93863347D01*
X154637778Y-93897021D01*
X154679523Y-94025499D01*
X154693244Y-94067725D01*
X154774730Y-94227651D01*
X154880222Y-94372849D01*
X154880226Y-94372854D01*
X155007145Y-94499773D01*
X155007150Y-94499777D01*
X155152348Y-94605269D01*
X155152350Y-94605270D01*
X155152353Y-94605272D01*
X155312277Y-94686757D01*
X155482979Y-94742222D01*
X155660256Y-94770300D01*
X155660257Y-94770300D01*
X155839743Y-94770300D01*
X155839744Y-94770300D01*
X156017021Y-94742222D01*
X156187723Y-94686757D01*
X156347647Y-94605272D01*
X156492856Y-94499772D01*
X156619772Y-94372856D01*
X156725272Y-94227647D01*
X156806757Y-94067723D01*
X156862222Y-93897021D01*
X156890300Y-93719744D01*
X156890300Y-93540256D01*
X177469700Y-93540256D01*
X177469700Y-93719744D01*
X177474540Y-93750301D01*
X177492444Y-93863347D01*
X177497778Y-93897021D01*
X177539523Y-94025499D01*
X177553244Y-94067725D01*
X177634730Y-94227651D01*
X177740222Y-94372849D01*
X177740226Y-94372854D01*
X177867145Y-94499773D01*
X177867150Y-94499777D01*
X178012348Y-94605269D01*
X178012350Y-94605270D01*
X178012353Y-94605272D01*
X178172277Y-94686757D01*
X178342979Y-94742222D01*
X178520256Y-94770300D01*
X178520257Y-94770300D01*
X178699743Y-94770300D01*
X178699744Y-94770300D01*
X178877021Y-94742222D01*
X179047723Y-94686757D01*
X179207647Y-94605272D01*
X179352856Y-94499772D01*
X179479772Y-94372856D01*
X179585272Y-94227647D01*
X179666757Y-94067723D01*
X179722222Y-93897021D01*
X179750300Y-93719744D01*
X179750300Y-93540256D01*
X179722222Y-93362979D01*
X179666757Y-93192277D01*
X179585272Y-93032353D01*
X179585270Y-93032350D01*
X179585269Y-93032348D01*
X179479777Y-92887150D01*
X179479773Y-92887145D01*
X179352854Y-92760226D01*
X179352849Y-92760222D01*
X179207651Y-92654730D01*
X179047725Y-92573244D01*
X179047724Y-92573243D01*
X179047723Y-92573243D01*
X178877021Y-92517778D01*
X178877019Y-92517777D01*
X178877018Y-92517777D01*
X178740838Y-92496208D01*
X178699744Y-92489700D01*
X178520256Y-92489700D01*
X178479161Y-92496208D01*
X178342982Y-92517777D01*
X178172274Y-92573244D01*
X178012348Y-92654730D01*
X177867150Y-92760222D01*
X177867145Y-92760226D01*
X177740226Y-92887145D01*
X177740222Y-92887150D01*
X177634730Y-93032348D01*
X177553244Y-93192274D01*
X177497777Y-93362982D01*
X177469700Y-93540256D01*
X156890300Y-93540256D01*
X156862222Y-93362979D01*
X156806757Y-93192277D01*
X156725272Y-93032353D01*
X156725270Y-93032350D01*
X156725269Y-93032348D01*
X156619777Y-92887150D01*
X156619773Y-92887145D01*
X156492854Y-92760226D01*
X156492849Y-92760222D01*
X156347651Y-92654730D01*
X156187725Y-92573244D01*
X156187724Y-92573243D01*
X156187723Y-92573243D01*
X156017021Y-92517778D01*
X156017019Y-92517777D01*
X156017018Y-92517777D01*
X155880838Y-92496208D01*
X155839744Y-92489700D01*
X155660256Y-92489700D01*
X155619161Y-92496208D01*
X155482982Y-92517777D01*
X155312274Y-92573244D01*
X155152348Y-92654730D01*
X155007150Y-92760222D01*
X155007145Y-92760226D01*
X154880226Y-92887145D01*
X154880222Y-92887150D01*
X154774730Y-93032348D01*
X154693244Y-93192274D01*
X154637777Y-93362982D01*
X154609700Y-93540256D01*
X153500500Y-93540256D01*
X153500500Y-91000256D01*
X154609700Y-91000256D01*
X154609700Y-91179744D01*
X154637778Y-91357021D01*
X154675185Y-91472148D01*
X154693244Y-91527725D01*
X154774730Y-91687651D01*
X154880222Y-91832849D01*
X154880226Y-91832854D01*
X155007145Y-91959773D01*
X155007150Y-91959777D01*
X155152348Y-92065269D01*
X155152350Y-92065270D01*
X155152353Y-92065272D01*
X155312277Y-92146757D01*
X155482979Y-92202222D01*
X155660256Y-92230300D01*
X155660257Y-92230300D01*
X155839743Y-92230300D01*
X155839744Y-92230300D01*
X156017021Y-92202222D01*
X156187723Y-92146757D01*
X156347647Y-92065272D01*
X156492856Y-91959772D01*
X156619772Y-91832856D01*
X156725272Y-91687647D01*
X156806757Y-91527723D01*
X156862222Y-91357021D01*
X156890300Y-91179744D01*
X156890300Y-91000256D01*
X177469700Y-91000256D01*
X177469700Y-91179744D01*
X177497778Y-91357021D01*
X177535185Y-91472148D01*
X177553244Y-91527725D01*
X177634730Y-91687651D01*
X177740222Y-91832849D01*
X177740226Y-91832854D01*
X177867145Y-91959773D01*
X177867150Y-91959777D01*
X178012348Y-92065269D01*
X178012350Y-92065270D01*
X178012353Y-92065272D01*
X178172277Y-92146757D01*
X178342979Y-92202222D01*
X178520256Y-92230300D01*
X178520257Y-92230300D01*
X178699743Y-92230300D01*
X178699744Y-92230300D01*
X178877021Y-92202222D01*
X179047723Y-92146757D01*
X179207647Y-92065272D01*
X179352856Y-91959772D01*
X179479772Y-91832856D01*
X179585272Y-91687647D01*
X179666757Y-91527723D01*
X179722222Y-91357021D01*
X179750300Y-91179744D01*
X179750300Y-91000256D01*
X179722222Y-90822979D01*
X179666757Y-90652277D01*
X179585272Y-90492353D01*
X179585270Y-90492350D01*
X179585269Y-90492348D01*
X179479777Y-90347150D01*
X179479773Y-90347145D01*
X179352854Y-90220226D01*
X179352849Y-90220222D01*
X179207651Y-90114730D01*
X179047725Y-90033244D01*
X179047724Y-90033243D01*
X179047723Y-90033243D01*
X178877021Y-89977778D01*
X178877019Y-89977777D01*
X178877018Y-89977777D01*
X178740838Y-89956208D01*
X178699744Y-89949700D01*
X178520256Y-89949700D01*
X178479161Y-89956208D01*
X178342982Y-89977777D01*
X178172274Y-90033244D01*
X178012348Y-90114730D01*
X177867150Y-90220222D01*
X177867145Y-90220226D01*
X177740226Y-90347145D01*
X177740222Y-90347150D01*
X177634730Y-90492348D01*
X177553244Y-90652274D01*
X177497777Y-90822982D01*
X177472074Y-90985268D01*
X177469700Y-91000256D01*
X156890300Y-91000256D01*
X156862222Y-90822979D01*
X156806757Y-90652277D01*
X156725272Y-90492353D01*
X156725270Y-90492350D01*
X156725269Y-90492348D01*
X156619777Y-90347150D01*
X156619773Y-90347145D01*
X156492854Y-90220226D01*
X156492849Y-90220222D01*
X156347651Y-90114730D01*
X156187725Y-90033244D01*
X156187724Y-90033243D01*
X156187723Y-90033243D01*
X156017021Y-89977778D01*
X156017019Y-89977777D01*
X156017018Y-89977777D01*
X155880838Y-89956208D01*
X155839744Y-89949700D01*
X155660256Y-89949700D01*
X155619161Y-89956208D01*
X155482982Y-89977777D01*
X155312274Y-90033244D01*
X155152348Y-90114730D01*
X155007150Y-90220222D01*
X155007145Y-90220226D01*
X154880226Y-90347145D01*
X154880222Y-90347150D01*
X154774730Y-90492348D01*
X154693244Y-90652274D01*
X154637777Y-90822982D01*
X154612074Y-90985268D01*
X154609700Y-91000256D01*
X153500500Y-91000256D01*
X153500500Y-88460256D01*
X154609700Y-88460256D01*
X154609700Y-88639744D01*
X154611404Y-88650500D01*
X154628795Y-88760308D01*
X154637778Y-88817021D01*
X154678772Y-88943187D01*
X154693244Y-88987725D01*
X154774730Y-89147651D01*
X154880222Y-89292849D01*
X154880226Y-89292854D01*
X155007145Y-89419773D01*
X155007150Y-89419777D01*
X155152348Y-89525269D01*
X155152350Y-89525270D01*
X155152353Y-89525272D01*
X155312277Y-89606757D01*
X155482979Y-89662222D01*
X155660256Y-89690300D01*
X155660257Y-89690300D01*
X155839743Y-89690300D01*
X155839744Y-89690300D01*
X156017021Y-89662222D01*
X156187723Y-89606757D01*
X156347647Y-89525272D01*
X156492856Y-89419772D01*
X156619772Y-89292856D01*
X156725272Y-89147647D01*
X156806757Y-88987723D01*
X156862222Y-88817021D01*
X156890300Y-88639744D01*
X156890300Y-88460256D01*
X177469700Y-88460256D01*
X177469700Y-88639744D01*
X177471404Y-88650500D01*
X177488795Y-88760308D01*
X177497778Y-88817021D01*
X177538772Y-88943187D01*
X177553244Y-88987725D01*
X177634730Y-89147651D01*
X177740222Y-89292849D01*
X177740226Y-89292854D01*
X177867145Y-89419773D01*
X177867150Y-89419777D01*
X178012348Y-89525269D01*
X178012350Y-89525270D01*
X178012353Y-89525272D01*
X178172277Y-89606757D01*
X178342979Y-89662222D01*
X178520256Y-89690300D01*
X178520257Y-89690300D01*
X178699743Y-89690300D01*
X178699744Y-89690300D01*
X178877021Y-89662222D01*
X179047723Y-89606757D01*
X179207647Y-89525272D01*
X179352856Y-89419772D01*
X179479772Y-89292856D01*
X179585272Y-89147647D01*
X179666757Y-88987723D01*
X179722222Y-88817021D01*
X179750300Y-88639744D01*
X179750300Y-88460256D01*
X179722222Y-88282979D01*
X179666757Y-88112277D01*
X179585272Y-87952353D01*
X179585270Y-87952350D01*
X179585269Y-87952348D01*
X179479777Y-87807150D01*
X179479773Y-87807145D01*
X179352854Y-87680226D01*
X179352849Y-87680222D01*
X179207651Y-87574730D01*
X179047725Y-87493244D01*
X179047724Y-87493243D01*
X179047723Y-87493243D01*
X178877021Y-87437778D01*
X178877019Y-87437777D01*
X178877018Y-87437777D01*
X178740838Y-87416208D01*
X178699744Y-87409700D01*
X178520256Y-87409700D01*
X178479161Y-87416208D01*
X178342982Y-87437777D01*
X178172274Y-87493244D01*
X178012348Y-87574730D01*
X177867150Y-87680222D01*
X177867145Y-87680226D01*
X177740226Y-87807145D01*
X177740222Y-87807150D01*
X177634730Y-87952348D01*
X177553244Y-88112274D01*
X177497777Y-88282982D01*
X177469814Y-88459535D01*
X177469700Y-88460256D01*
X156890300Y-88460256D01*
X156862222Y-88282979D01*
X156806757Y-88112277D01*
X156725272Y-87952353D01*
X156725270Y-87952350D01*
X156725269Y-87952348D01*
X156619777Y-87807150D01*
X156619773Y-87807145D01*
X156492854Y-87680226D01*
X156492849Y-87680222D01*
X156347651Y-87574730D01*
X156187725Y-87493244D01*
X156187724Y-87493243D01*
X156187723Y-87493243D01*
X156017021Y-87437778D01*
X156017019Y-87437777D01*
X156017018Y-87437777D01*
X155880838Y-87416208D01*
X155839744Y-87409700D01*
X155660256Y-87409700D01*
X155619161Y-87416208D01*
X155482982Y-87437777D01*
X155312274Y-87493244D01*
X155152348Y-87574730D01*
X155007150Y-87680222D01*
X155007145Y-87680226D01*
X154880226Y-87807145D01*
X154880222Y-87807150D01*
X154774730Y-87952348D01*
X154693244Y-88112274D01*
X154637777Y-88282982D01*
X154609814Y-88459535D01*
X154609700Y-88460256D01*
X153500500Y-88460256D01*
X153500500Y-85920256D01*
X154609700Y-85920256D01*
X154609700Y-86099743D01*
X154637777Y-86277017D01*
X154693244Y-86447725D01*
X154774730Y-86607651D01*
X154880222Y-86752849D01*
X154880226Y-86752854D01*
X155007145Y-86879773D01*
X155007150Y-86879777D01*
X155152348Y-86985269D01*
X155152350Y-86985270D01*
X155152353Y-86985272D01*
X155312277Y-87066757D01*
X155482979Y-87122222D01*
X155660256Y-87150300D01*
X155660257Y-87150300D01*
X155839743Y-87150300D01*
X155839744Y-87150300D01*
X156017021Y-87122222D01*
X156187723Y-87066757D01*
X156347647Y-86985272D01*
X156492856Y-86879772D01*
X156619772Y-86752856D01*
X156725272Y-86607647D01*
X156806757Y-86447723D01*
X156862222Y-86277021D01*
X156890300Y-86099744D01*
X156890300Y-85920256D01*
X156862222Y-85742979D01*
X156806757Y-85572277D01*
X156725272Y-85412353D01*
X156725270Y-85412350D01*
X156725269Y-85412348D01*
X156619777Y-85267150D01*
X156619773Y-85267145D01*
X156492854Y-85140226D01*
X156492849Y-85140222D01*
X156347651Y-85034730D01*
X156187725Y-84953244D01*
X156187724Y-84953243D01*
X156187723Y-84953243D01*
X156017021Y-84897778D01*
X156017019Y-84897777D01*
X156017018Y-84897777D01*
X155880838Y-84876208D01*
X155839744Y-84869700D01*
X155660256Y-84869700D01*
X155619161Y-84876208D01*
X155482982Y-84897777D01*
X155312274Y-84953244D01*
X155152348Y-85034730D01*
X155007150Y-85140222D01*
X155007145Y-85140226D01*
X154880226Y-85267145D01*
X154880222Y-85267150D01*
X154774730Y-85412348D01*
X154693244Y-85572274D01*
X154637777Y-85742982D01*
X154609700Y-85920256D01*
X153500500Y-85920256D01*
X153500500Y-80840256D01*
X154609700Y-80840256D01*
X154609700Y-81019743D01*
X154637777Y-81197017D01*
X154693244Y-81367725D01*
X154774730Y-81527651D01*
X154880222Y-81672849D01*
X154880226Y-81672854D01*
X155007145Y-81799773D01*
X155007150Y-81799777D01*
X155152348Y-81905269D01*
X155152350Y-81905270D01*
X155152353Y-81905272D01*
X155312277Y-81986757D01*
X155482979Y-82042222D01*
X155660256Y-82070300D01*
X155660257Y-82070300D01*
X155839743Y-82070300D01*
X155839744Y-82070300D01*
X156017021Y-82042222D01*
X156187723Y-81986757D01*
X156347647Y-81905272D01*
X156492856Y-81799772D01*
X156619772Y-81672856D01*
X156725272Y-81527647D01*
X156806757Y-81367723D01*
X156862222Y-81197021D01*
X156890300Y-81019744D01*
X156890300Y-80840256D01*
X177469700Y-80840256D01*
X177469700Y-81019743D01*
X177497777Y-81197017D01*
X177553244Y-81367725D01*
X177634730Y-81527651D01*
X177740222Y-81672849D01*
X177740226Y-81672854D01*
X177867145Y-81799773D01*
X177867150Y-81799777D01*
X178012348Y-81905269D01*
X178012350Y-81905270D01*
X178012353Y-81905272D01*
X178172277Y-81986757D01*
X178342979Y-82042222D01*
X178520256Y-82070300D01*
X178520257Y-82070300D01*
X178699743Y-82070300D01*
X178699744Y-82070300D01*
X178877021Y-82042222D01*
X179047723Y-81986757D01*
X179207647Y-81905272D01*
X179352856Y-81799772D01*
X179479772Y-81672856D01*
X179585272Y-81527647D01*
X179666757Y-81367723D01*
X179722222Y-81197021D01*
X179750300Y-81019744D01*
X179750300Y-80840256D01*
X179722222Y-80662979D01*
X179666757Y-80492277D01*
X179585272Y-80332353D01*
X179585270Y-80332350D01*
X179585269Y-80332348D01*
X179479777Y-80187150D01*
X179479773Y-80187145D01*
X179352854Y-80060226D01*
X179352849Y-80060222D01*
X179207651Y-79954730D01*
X179047725Y-79873244D01*
X179047724Y-79873243D01*
X179047723Y-79873243D01*
X178877021Y-79817778D01*
X178877019Y-79817777D01*
X178877018Y-79817777D01*
X178740838Y-79796208D01*
X178699744Y-79789700D01*
X178520256Y-79789700D01*
X178479161Y-79796208D01*
X178342982Y-79817777D01*
X178172274Y-79873244D01*
X178012348Y-79954730D01*
X177867150Y-80060222D01*
X177867145Y-80060226D01*
X177740226Y-80187145D01*
X177740222Y-80187150D01*
X177634730Y-80332348D01*
X177553244Y-80492274D01*
X177497777Y-80662982D01*
X177469700Y-80840256D01*
X156890300Y-80840256D01*
X156862222Y-80662979D01*
X156806757Y-80492277D01*
X156725272Y-80332353D01*
X156725270Y-80332350D01*
X156725269Y-80332348D01*
X156619777Y-80187150D01*
X156619773Y-80187145D01*
X156492854Y-80060226D01*
X156492849Y-80060222D01*
X156347651Y-79954730D01*
X156187725Y-79873244D01*
X156187724Y-79873243D01*
X156187723Y-79873243D01*
X156017021Y-79817778D01*
X156017019Y-79817777D01*
X156017018Y-79817777D01*
X155880838Y-79796208D01*
X155839744Y-79789700D01*
X155660256Y-79789700D01*
X155619161Y-79796208D01*
X155482982Y-79817777D01*
X155312274Y-79873244D01*
X155152348Y-79954730D01*
X155007150Y-80060222D01*
X155007145Y-80060226D01*
X154880226Y-80187145D01*
X154880222Y-80187150D01*
X154774730Y-80332348D01*
X154693244Y-80492274D01*
X154637777Y-80662982D01*
X154609700Y-80840256D01*
X153500500Y-80840256D01*
X153500500Y-78300256D01*
X154609700Y-78300256D01*
X154609700Y-78479743D01*
X154637777Y-78657017D01*
X154693244Y-78827725D01*
X154774730Y-78987651D01*
X154880222Y-79132849D01*
X154880226Y-79132854D01*
X155007145Y-79259773D01*
X155007150Y-79259777D01*
X155152348Y-79365269D01*
X155152350Y-79365270D01*
X155152353Y-79365272D01*
X155312277Y-79446757D01*
X155482979Y-79502222D01*
X155660256Y-79530300D01*
X155660257Y-79530300D01*
X155839743Y-79530300D01*
X155839744Y-79530300D01*
X156017021Y-79502222D01*
X156187723Y-79446757D01*
X156347647Y-79365272D01*
X156492856Y-79259772D01*
X156619772Y-79132856D01*
X156725272Y-78987647D01*
X156806757Y-78827723D01*
X156862222Y-78657021D01*
X156890300Y-78479744D01*
X156890300Y-78300256D01*
X177469700Y-78300256D01*
X177469700Y-78479743D01*
X177497777Y-78657017D01*
X177553244Y-78827725D01*
X177634730Y-78987651D01*
X177740222Y-79132849D01*
X177740226Y-79132854D01*
X177867145Y-79259773D01*
X177867150Y-79259777D01*
X178012348Y-79365269D01*
X178012350Y-79365270D01*
X178012353Y-79365272D01*
X178172277Y-79446757D01*
X178342979Y-79502222D01*
X178520256Y-79530300D01*
X178520257Y-79530300D01*
X178699743Y-79530300D01*
X178699744Y-79530300D01*
X178877021Y-79502222D01*
X179047723Y-79446757D01*
X179207647Y-79365272D01*
X179352856Y-79259772D01*
X179479772Y-79132856D01*
X179585272Y-78987647D01*
X179666757Y-78827723D01*
X179722222Y-78657021D01*
X179750300Y-78479744D01*
X179750300Y-78300256D01*
X179722222Y-78122979D01*
X179666757Y-77952277D01*
X179585272Y-77792353D01*
X179585270Y-77792350D01*
X179585269Y-77792348D01*
X179479777Y-77647150D01*
X179479773Y-77647145D01*
X179352854Y-77520226D01*
X179352849Y-77520222D01*
X179207651Y-77414730D01*
X179047725Y-77333244D01*
X179047724Y-77333243D01*
X179047723Y-77333243D01*
X178877021Y-77277778D01*
X178877019Y-77277777D01*
X178877018Y-77277777D01*
X178740838Y-77256208D01*
X178699744Y-77249700D01*
X178520256Y-77249700D01*
X178479161Y-77256208D01*
X178342982Y-77277777D01*
X178172274Y-77333244D01*
X178012348Y-77414730D01*
X177867150Y-77520222D01*
X177867145Y-77520226D01*
X177740226Y-77647145D01*
X177740222Y-77647150D01*
X177634730Y-77792348D01*
X177553244Y-77952274D01*
X177497777Y-78122982D01*
X177469700Y-78300256D01*
X156890300Y-78300256D01*
X156862222Y-78122979D01*
X156806757Y-77952277D01*
X156725272Y-77792353D01*
X156725270Y-77792350D01*
X156725269Y-77792348D01*
X156619777Y-77647150D01*
X156619773Y-77647145D01*
X156492854Y-77520226D01*
X156492849Y-77520222D01*
X156347651Y-77414730D01*
X156187725Y-77333244D01*
X156187724Y-77333243D01*
X156187723Y-77333243D01*
X156017021Y-77277778D01*
X156017019Y-77277777D01*
X156017018Y-77277777D01*
X155880838Y-77256208D01*
X155839744Y-77249700D01*
X155660256Y-77249700D01*
X155619161Y-77256208D01*
X155482982Y-77277777D01*
X155312274Y-77333244D01*
X155152348Y-77414730D01*
X155007150Y-77520222D01*
X155007145Y-77520226D01*
X154880226Y-77647145D01*
X154880222Y-77647150D01*
X154774730Y-77792348D01*
X154693244Y-77952274D01*
X154637777Y-78122982D01*
X154609700Y-78300256D01*
X153500500Y-78300256D01*
X153500500Y-75760256D01*
X154609700Y-75760256D01*
X154609700Y-75939743D01*
X154637777Y-76117017D01*
X154693244Y-76287725D01*
X154774730Y-76447651D01*
X154880222Y-76592849D01*
X154880226Y-76592854D01*
X155007145Y-76719773D01*
X155007150Y-76719777D01*
X155152348Y-76825269D01*
X155152350Y-76825270D01*
X155152353Y-76825272D01*
X155312277Y-76906757D01*
X155482979Y-76962222D01*
X155660256Y-76990300D01*
X155660257Y-76990300D01*
X155839743Y-76990300D01*
X155839744Y-76990300D01*
X156017021Y-76962222D01*
X156187723Y-76906757D01*
X156347647Y-76825272D01*
X156492856Y-76719772D01*
X156619772Y-76592856D01*
X156725272Y-76447647D01*
X156806757Y-76287723D01*
X156862222Y-76117021D01*
X156890300Y-75939744D01*
X156890300Y-75760256D01*
X177469700Y-75760256D01*
X177469700Y-75939743D01*
X177497777Y-76117017D01*
X177553244Y-76287725D01*
X177634730Y-76447651D01*
X177740222Y-76592849D01*
X177740226Y-76592854D01*
X177867145Y-76719773D01*
X177867150Y-76719777D01*
X178012348Y-76825269D01*
X178012350Y-76825270D01*
X178012353Y-76825272D01*
X178172277Y-76906757D01*
X178342979Y-76962222D01*
X178520256Y-76990300D01*
X178520257Y-76990300D01*
X178699743Y-76990300D01*
X178699744Y-76990300D01*
X178877021Y-76962222D01*
X179047723Y-76906757D01*
X179207647Y-76825272D01*
X179352856Y-76719772D01*
X179479772Y-76592856D01*
X179585272Y-76447647D01*
X179666757Y-76287723D01*
X179722222Y-76117021D01*
X179750300Y-75939744D01*
X179750300Y-75760256D01*
X179722222Y-75582979D01*
X179666757Y-75412277D01*
X179585272Y-75252353D01*
X179585270Y-75252350D01*
X179585269Y-75252348D01*
X179479777Y-75107150D01*
X179479773Y-75107145D01*
X179352854Y-74980226D01*
X179352849Y-74980222D01*
X179207651Y-74874730D01*
X179047725Y-74793244D01*
X179047724Y-74793243D01*
X179047723Y-74793243D01*
X178877021Y-74737778D01*
X178877019Y-74737777D01*
X178877018Y-74737777D01*
X178740838Y-74716208D01*
X178699744Y-74709700D01*
X178520256Y-74709700D01*
X178479161Y-74716208D01*
X178342982Y-74737777D01*
X178172274Y-74793244D01*
X178012348Y-74874730D01*
X177867150Y-74980222D01*
X177867145Y-74980226D01*
X177740226Y-75107145D01*
X177740222Y-75107150D01*
X177634730Y-75252348D01*
X177553244Y-75412274D01*
X177497777Y-75582982D01*
X177469700Y-75760256D01*
X156890300Y-75760256D01*
X156862222Y-75582979D01*
X156806757Y-75412277D01*
X156725272Y-75252353D01*
X156725270Y-75252350D01*
X156725269Y-75252348D01*
X156619777Y-75107150D01*
X156619773Y-75107145D01*
X156492854Y-74980226D01*
X156492849Y-74980222D01*
X156347651Y-74874730D01*
X156187725Y-74793244D01*
X156187724Y-74793243D01*
X156187723Y-74793243D01*
X156017021Y-74737778D01*
X156017019Y-74737777D01*
X156017018Y-74737777D01*
X155880838Y-74716208D01*
X155839744Y-74709700D01*
X155660256Y-74709700D01*
X155619161Y-74716208D01*
X155482982Y-74737777D01*
X155312274Y-74793244D01*
X155152348Y-74874730D01*
X155007150Y-74980222D01*
X155007145Y-74980226D01*
X154880226Y-75107145D01*
X154880222Y-75107150D01*
X154774730Y-75252348D01*
X154693244Y-75412274D01*
X154637777Y-75582982D01*
X154609700Y-75760256D01*
X153500500Y-75760256D01*
X153500500Y-73220256D01*
X154609700Y-73220256D01*
X154609700Y-73399743D01*
X154636896Y-73571456D01*
X154637778Y-73577021D01*
X154681583Y-73711839D01*
X154693244Y-73747725D01*
X154774730Y-73907651D01*
X154880222Y-74052849D01*
X154880226Y-74052854D01*
X155007145Y-74179773D01*
X155007150Y-74179777D01*
X155152348Y-74285269D01*
X155152350Y-74285270D01*
X155152353Y-74285272D01*
X155312277Y-74366757D01*
X155482979Y-74422222D01*
X155660256Y-74450300D01*
X155660257Y-74450300D01*
X155839743Y-74450300D01*
X155839744Y-74450300D01*
X156017021Y-74422222D01*
X156187723Y-74366757D01*
X156347647Y-74285272D01*
X156492856Y-74179772D01*
X156619772Y-74052856D01*
X156725272Y-73907647D01*
X156806757Y-73747723D01*
X156862222Y-73577021D01*
X156890300Y-73399744D01*
X156890300Y-73220256D01*
X156862222Y-73042979D01*
X156806757Y-72872277D01*
X156725272Y-72712353D01*
X156725270Y-72712350D01*
X156725269Y-72712348D01*
X156619777Y-72567150D01*
X156619773Y-72567145D01*
X156492854Y-72440226D01*
X156492849Y-72440222D01*
X156347651Y-72334730D01*
X156187725Y-72253244D01*
X156187724Y-72253243D01*
X156187723Y-72253243D01*
X156017021Y-72197778D01*
X156017019Y-72197777D01*
X156017018Y-72197777D01*
X155880838Y-72176208D01*
X155839744Y-72169700D01*
X155660256Y-72169700D01*
X155619161Y-72176208D01*
X155482982Y-72197777D01*
X155312274Y-72253244D01*
X155152348Y-72334730D01*
X155007150Y-72440222D01*
X155007145Y-72440226D01*
X154880226Y-72567145D01*
X154880222Y-72567150D01*
X154774730Y-72712348D01*
X154693244Y-72872274D01*
X154637777Y-73042982D01*
X154609700Y-73220256D01*
X153500500Y-73220256D01*
X153500500Y-70680256D01*
X154609700Y-70680256D01*
X154609700Y-70859744D01*
X154637778Y-71037021D01*
X154665894Y-71123553D01*
X154693244Y-71207725D01*
X154774730Y-71367651D01*
X154880222Y-71512849D01*
X154880226Y-71512854D01*
X155007145Y-71639773D01*
X155007150Y-71639777D01*
X155152348Y-71745269D01*
X155152350Y-71745270D01*
X155152353Y-71745272D01*
X155312277Y-71826757D01*
X155482979Y-71882222D01*
X155660256Y-71910300D01*
X155660257Y-71910300D01*
X155839743Y-71910300D01*
X155839744Y-71910300D01*
X156017021Y-71882222D01*
X156187723Y-71826757D01*
X156347647Y-71745272D01*
X156492856Y-71639772D01*
X156619772Y-71512856D01*
X156725272Y-71367647D01*
X156806757Y-71207723D01*
X156862222Y-71037021D01*
X156890300Y-70859744D01*
X156890300Y-70680256D01*
X156886567Y-70656685D01*
X177170200Y-70656685D01*
X177170200Y-70883314D01*
X177205653Y-71107155D01*
X177205653Y-71107158D01*
X177275683Y-71322688D01*
X177378573Y-71524620D01*
X177430439Y-71596006D01*
X177430439Y-71596007D01*
X178120504Y-70905941D01*
X178136619Y-70966081D01*
X178203498Y-71081920D01*
X178298080Y-71176502D01*
X178413919Y-71243381D01*
X178474057Y-71259494D01*
X177783991Y-71949559D01*
X177855379Y-72001426D01*
X178044097Y-72097583D01*
X178094893Y-72145558D01*
X178111688Y-72213379D01*
X178089151Y-72279513D01*
X178044099Y-72318552D01*
X178012349Y-72334729D01*
X177867150Y-72440222D01*
X177867145Y-72440226D01*
X177740226Y-72567145D01*
X177740222Y-72567150D01*
X177634730Y-72712348D01*
X177553244Y-72872274D01*
X177497777Y-73042982D01*
X177469700Y-73220256D01*
X177469700Y-73399743D01*
X177496896Y-73571456D01*
X177497778Y-73577021D01*
X177541583Y-73711839D01*
X177553244Y-73747725D01*
X177634730Y-73907651D01*
X177740222Y-74052849D01*
X177740226Y-74052854D01*
X177867145Y-74179773D01*
X177867150Y-74179777D01*
X178012348Y-74285269D01*
X178012350Y-74285270D01*
X178012353Y-74285272D01*
X178172277Y-74366757D01*
X178342979Y-74422222D01*
X178520256Y-74450300D01*
X178520257Y-74450300D01*
X178699743Y-74450300D01*
X178699744Y-74450300D01*
X178877021Y-74422222D01*
X179047723Y-74366757D01*
X179207647Y-74285272D01*
X179352856Y-74179772D01*
X179479772Y-74052856D01*
X179585272Y-73907647D01*
X179666757Y-73747723D01*
X179722222Y-73577021D01*
X179750300Y-73399744D01*
X179750300Y-73220256D01*
X179722222Y-73042979D01*
X179666757Y-72872277D01*
X179585272Y-72712353D01*
X179585270Y-72712350D01*
X179585269Y-72712348D01*
X179479777Y-72567150D01*
X179479773Y-72567145D01*
X179352854Y-72440226D01*
X179352849Y-72440222D01*
X179207646Y-72334727D01*
X179207645Y-72334726D01*
X179175902Y-72318552D01*
X179125106Y-72270578D01*
X179108311Y-72202757D01*
X179130849Y-72136622D01*
X179175902Y-72097583D01*
X179364620Y-72001426D01*
X179436006Y-71949559D01*
X178745942Y-71259495D01*
X178806081Y-71243381D01*
X178921920Y-71176502D01*
X179016502Y-71081920D01*
X179083381Y-70966081D01*
X179099495Y-70905942D01*
X179789559Y-71596006D01*
X179841426Y-71524620D01*
X179944316Y-71322688D01*
X180014346Y-71107158D01*
X180014346Y-71107155D01*
X180049800Y-70883314D01*
X180049800Y-70656685D01*
X180014346Y-70432844D01*
X180014346Y-70432841D01*
X179944316Y-70217311D01*
X179841426Y-70015379D01*
X179789559Y-69943992D01*
X179789559Y-69943991D01*
X179099494Y-70634056D01*
X179083381Y-70573919D01*
X179016502Y-70458080D01*
X178921920Y-70363498D01*
X178806081Y-70296619D01*
X178745940Y-70280504D01*
X179436007Y-69590439D01*
X179364620Y-69538573D01*
X179162688Y-69435683D01*
X178947157Y-69365653D01*
X178723314Y-69330200D01*
X178496686Y-69330200D01*
X178272844Y-69365653D01*
X178272841Y-69365653D01*
X178057311Y-69435683D01*
X177855376Y-69538575D01*
X177783992Y-69590438D01*
X177783991Y-69590439D01*
X178474057Y-70280504D01*
X178413919Y-70296619D01*
X178298080Y-70363498D01*
X178203498Y-70458080D01*
X178136619Y-70573919D01*
X178120504Y-70634057D01*
X177430439Y-69943991D01*
X177430438Y-69943992D01*
X177378575Y-70015376D01*
X177275683Y-70217311D01*
X177205653Y-70432841D01*
X177205653Y-70432844D01*
X177170200Y-70656685D01*
X156886567Y-70656685D01*
X156862222Y-70502979D01*
X156806757Y-70332277D01*
X156725272Y-70172353D01*
X156725270Y-70172350D01*
X156725269Y-70172348D01*
X156619777Y-70027150D01*
X156619773Y-70027145D01*
X156492854Y-69900226D01*
X156492849Y-69900222D01*
X156347650Y-69794730D01*
X156347649Y-69794729D01*
X156347647Y-69794728D01*
X156187723Y-69713243D01*
X156017021Y-69657778D01*
X156017019Y-69657777D01*
X156017018Y-69657777D01*
X155880838Y-69636208D01*
X155839744Y-69629700D01*
X155660256Y-69629700D01*
X155619161Y-69636208D01*
X155482982Y-69657777D01*
X155312274Y-69713244D01*
X155152348Y-69794730D01*
X155007150Y-69900222D01*
X155007145Y-69900226D01*
X154880226Y-70027145D01*
X154880222Y-70027150D01*
X154774730Y-70172348D01*
X154693244Y-70332274D01*
X154637777Y-70502982D01*
X154626542Y-70573919D01*
X154609700Y-70680256D01*
X153500500Y-70680256D01*
X153500500Y-65580247D01*
X182649500Y-65580247D01*
X182649500Y-67419752D01*
X182661131Y-67478229D01*
X182661132Y-67478230D01*
X182705447Y-67544552D01*
X182771769Y-67588867D01*
X182771770Y-67588868D01*
X182830247Y-67600499D01*
X182830250Y-67600500D01*
X182830252Y-67600500D01*
X184374167Y-67600500D01*
X184441206Y-67620185D01*
X184461848Y-67636819D01*
X184663181Y-67838152D01*
X184696666Y-67899475D01*
X184699500Y-67925833D01*
X184699500Y-72628683D01*
X184679815Y-72695722D01*
X184627011Y-72741477D01*
X184622953Y-72743244D01*
X184526089Y-72783366D01*
X184526079Y-72783371D01*
X184362218Y-72892860D01*
X184362214Y-72892863D01*
X184222863Y-73032214D01*
X184222860Y-73032218D01*
X184113371Y-73196079D01*
X184113364Y-73196092D01*
X184037950Y-73378160D01*
X184037947Y-73378170D01*
X183999500Y-73571456D01*
X183999500Y-73571459D01*
X183999500Y-73768541D01*
X183999500Y-73768543D01*
X183999499Y-73768543D01*
X184037947Y-73961829D01*
X184037950Y-73961839D01*
X184113364Y-74143907D01*
X184113371Y-74143920D01*
X184222860Y-74307781D01*
X184222863Y-74307785D01*
X184362214Y-74447136D01*
X184362218Y-74447139D01*
X184526079Y-74556628D01*
X184526092Y-74556635D01*
X184708160Y-74632049D01*
X184708165Y-74632051D01*
X184708169Y-74632051D01*
X184708170Y-74632052D01*
X184901456Y-74670500D01*
X184901459Y-74670500D01*
X185098543Y-74670500D01*
X185228582Y-74644632D01*
X185291835Y-74632051D01*
X185473914Y-74556632D01*
X185637782Y-74447139D01*
X185777139Y-74307782D01*
X185886632Y-74143914D01*
X185962051Y-73961835D01*
X186000500Y-73768541D01*
X186000500Y-73571459D01*
X186000500Y-73571456D01*
X185962052Y-73378170D01*
X185962051Y-73378169D01*
X185962051Y-73378165D01*
X185938562Y-73321456D01*
X185886635Y-73196092D01*
X185886628Y-73196079D01*
X185777139Y-73032218D01*
X185777136Y-73032214D01*
X185637785Y-72892863D01*
X185637781Y-72892860D01*
X185473920Y-72783371D01*
X185473910Y-72783366D01*
X185377047Y-72743244D01*
X185322644Y-72699403D01*
X185300579Y-72633109D01*
X185300500Y-72628683D01*
X185300500Y-67710439D01*
X185280020Y-67634009D01*
X185280017Y-67634004D01*
X185240464Y-67565495D01*
X185240458Y-67565487D01*
X184886819Y-67211848D01*
X184853334Y-67150525D01*
X184850500Y-67124167D01*
X184850500Y-65580249D01*
X184850499Y-65580247D01*
X184838868Y-65521770D01*
X184838867Y-65521769D01*
X184794552Y-65455447D01*
X184728230Y-65411132D01*
X184728229Y-65411131D01*
X184669752Y-65399500D01*
X184669748Y-65399500D01*
X182830252Y-65399500D01*
X182830247Y-65399500D01*
X182771770Y-65411131D01*
X182771769Y-65411132D01*
X182705447Y-65455447D01*
X182661132Y-65521769D01*
X182661131Y-65521770D01*
X182649500Y-65580247D01*
X153500500Y-65580247D01*
X153500500Y-62260839D01*
X153520185Y-62193800D01*
X153572989Y-62148045D01*
X153624500Y-62136839D01*
X209875500Y-62136839D01*
X209942539Y-62156524D01*
G37*
%TD.AperFunction*%
%TD*%
M02*
